<?xml version="1.0" encoding="UTF-8" standalone="no"?>
<!-- Generator: Adobe Illustrator 26.0.3, SVG Export Plug-In . SVG Version: 6.00 Build 0)  -->

<svg
   version="1.1"
   id="Layer_1"
   x="0px"
   y="0px"
   viewBox="0 0 30.49 31.639999"
   xml:space="preserve"
   sodipodi:docname="archipelago-icon.svg"
   width="30.49"
   height="31.639999"
   inkscape:version="1.3.2 (091e20ef0f, 2023-11-25)"
   xmlns:inkscape="http://www.inkscape.org/namespaces/inkscape"
   xmlns:sodipodi="http://sodipodi.sourceforge.net/DTD/sodipodi-0.dtd"
   xmlns="http://www.w3.org/2000/svg"
   xmlns:svg="http://www.w3.org/2000/svg"><defs
   id="defs15">
	
	
</defs><sodipodi:namedview
   id="namedview15"
   pagecolor="#ffffff"
   bordercolor="#000000"
   borderopacity="0.25"
   inkscape:showpageshadow="2"
   inkscape:pageopacity="0.0"
   inkscape:pagecheckerboard="0"
   inkscape:deskcolor="#d1d1d1"
   inkscape:zoom="12.429167"
   inkscape:cx="9.9363057"
   inkscape:cy="15.045256"
   inkscape:window-width="3840"
   inkscape:window-height="2091"
   inkscape:window-x="2560"
   inkscape:window-y="0"
   inkscape:window-maximized="1"
   inkscape:current-layer="Layer_1" />
<style
   type="text/css"
   id="style1">
	.st0{fill:#316B84;}
</style>
<g
   id="g14"
   style="fill:#000000;fill-opacity:1">
		<path
   class="st0"
   d="m 14.14,11.28 c 0,0.35 -0.02,0.71 -0.07,1.05 0.38,0.07 0.76,0.11 1.16,0.11 0.4,0 0.79,-0.04 1.16,-0.11 -0.05,-0.34 -0.07,-0.7 -0.07,-1.05 0,-3.23 1.94,-6.02 4.72,-7.25 C 20.17,1.68 17.9,0 15.24,0 12.58,0 10.3,1.68 9.42,4.03 c 2.78,1.23 4.72,4.01 4.72,7.25 z"
   id="path9"
   style="fill:#000000;fill-opacity:1" />
		<path
   class="st0"
   d="m 18.04,11.28 c 0,0.16 0.01,0.32 0.02,0.48 0.02,0.3 0.06,0.6 0.13,0.88 0.06,0.28 0.15,0.56 0.25,0.83 0.11,0.3 0.24,0.58 0.39,0.85 1.42,-1.33 3.33,-2.15 5.42,-2.15 2.09,0 4.01,0.82 5.42,2.15 0.51,-0.9 0.79,-1.94 0.79,-3.04 0,-3.42 -2.79,-6.22 -6.22,-6.22 -0.4,0 -0.79,0.04 -1.16,0.11 -0.28,0.06 -0.56,0.13 -0.83,0.22 -0.28,0.09 -0.56,0.21 -0.83,0.35 -2,1.03 -3.38,3.13 -3.38,5.54 z"
   id="path10"
   style="fill:#000000;fill-opacity:1" />
		<path
   class="st0"
   d="m 6.22,12.16 c 2.1,0 4.01,0.82 5.42,2.15 0.15,-0.27 0.28,-0.55 0.39,-0.85 0.1,-0.27 0.19,-0.54 0.25,-0.83 0.06,-0.28 0.11,-0.58 0.13,-0.88 0.02,-0.15 0.02,-0.32 0.02,-0.48 C 12.43,8.86 11.05,6.76 9.04,5.73 8.77,5.6 8.5,5.49 8.21,5.39 7.94,5.29 7.66,5.22 7.38,5.17 7,5.1 6.61,5.06 6.22,5.06 2.79,5.06 0,7.85 0,11.28 c 0,1.1 0.28,2.14 0.79,3.04 1.42,-1.34 3.33,-2.16 5.43,-2.16 z"
   id="path11"
   style="fill:#000000;fill-opacity:1" />
		<path
   class="st0"
   d="m 29.21,16.33 c -0.18,-0.23 -0.36,-0.44 -0.57,-0.65 -1.12,-1.12 -2.67,-1.81 -4.38,-1.81 -1.71,0 -3.25,0.69 -4.38,1.81 -0.2,0.2 -0.39,0.42 -0.56,0.64 -0.18,0.23 -0.34,0.47 -0.47,0.72 -0.2,0.34 -0.36,0.71 -0.48,1.09 2.83,1.21 4.81,4.02 4.81,7.28 0,0.26 -0.01,0.52 -0.04,0.78 0.37,0.07 0.75,0.1 1.13,0.1 3.43,0 6.22,-2.79 6.22,-6.22 0,-1.11 -0.29,-2.14 -0.8,-3.04 -0.15,-0.23 -0.31,-0.47 -0.48,-0.7 z"
   id="path12"
   style="fill:#000000;fill-opacity:1" />
		<path
   class="st0"
   d="M 12.12,18.14 C 11.99,17.76 11.84,17.39 11.64,17.05 11.5,16.79 11.34,16.55 11.17,16.33 11,16.1 10.81,15.89 10.61,15.69 9.49,14.57 7.94,13.88 6.23,13.88 4.52,13.88 2.97,14.57 1.85,15.69 1.64,15.89 1.46,16.11 1.29,16.33 1.11,16.56 0.95,16.8 0.82,17.05 0.29,17.94 0,18.98 0,20.08 c 0,3.43 2.79,6.22 6.22,6.22 0.39,0 0.76,-0.03 1.13,-0.1 -0.03,-0.26 -0.04,-0.52 -0.04,-0.78 0,-3.27 1.98,-6.08 4.81,-7.28 z"
   id="path13"
   style="fill:#000000;fill-opacity:1" />
		<path
   class="st0"
   d="m 18.04,19.87 c -0.27,-0.14 -0.55,-0.26 -0.84,-0.35 -0.27,-0.09 -0.55,-0.17 -0.84,-0.22 -0.37,-0.07 -0.75,-0.1 -1.13,-0.1 -0.38,0 -0.76,0.03 -1.13,0.1 -0.28,0.05 -0.57,0.13 -0.84,0.22 -0.29,0.1 -0.57,0.22 -0.84,0.35 -2.02,1.03 -3.4,3.13 -3.4,5.55 0,0.07 0,0.14 0.01,0.21 0.01,0.31 0.04,0.61 0.1,0.9 0.05,0.28 0.12,0.57 0.21,0.84 0.82,2.48 3.16,4.27 5.9,4.27 2.74,0 5.08,-1.79 5.9,-4.27 0.09,-0.27 0.17,-0.55 0.21,-0.84 0.06,-0.3 0.09,-0.6 0.1,-0.91 0.01,-0.07 0.01,-0.14 0.01,-0.21 C 21.45,23 20.07,20.9 18.04,19.87 Z"
   id="path14"
   style="fill:#000000;fill-opacity:1" />
	</g>
</svg>
