<?xml version="1.0" encoding="UTF-8" standalone="no"?>
<svg
   enable-background="new 0 0 500 500"
   height="35"
   id="Layer_1"
   version="1.1"
   viewBox="0 0 35 35"
   width="35"
   xml:space="preserve"
   sodipodi:docname="behind-keys.svg"
   inkscape:version="1.3.2 (091e20ef0f, 2023-11-25)"
   xmlns:inkscape="http://www.inkscape.org/namespaces/inkscape"
   xmlns:sodipodi="http://sodipodi.sourceforge.net/DTD/sodipodi-0.dtd"
   xmlns="http://www.w3.org/2000/svg"
   xmlns:svg="http://www.w3.org/2000/svg"><defs
     id="defs1" /><sodipodi:namedview
     id="namedview1"
     pagecolor="#ffffff"
     bordercolor="#000000"
     borderopacity="0.25"
     inkscape:showpageshadow="2"
     inkscape:pageopacity="0.0"
     inkscape:pagecheckerboard="0"
     inkscape:deskcolor="#d1d1d1"
     inkscape:zoom="29.984"
     inkscape:cx="16.258671"
     inkscape:cy="22.61206"
     inkscape:window-width="3840"
     inkscape:window-height="2091"
     inkscape:window-x="2560"
     inkscape:window-y="0"
     inkscape:window-maximized="1"
     inkscape:current-layer="Layer_1" /><path
     clip-rule="evenodd"
     d="m 3.7749089,15.258477 c -1.23642,-8.3e-4 -2.24204,1.00478 -2.2416,2.2416 -3e-4,1.23669 1.00518,2.24217 2.23765,2.23765 l 0.8894,0.004 4.4e-4,3.72609 c -4.9e-4,0.63773 0.51018,1.1484 1.14835,1.14835 h 5.5535201 c 0.63764,5.6e-4 1.14848,-0.51027 1.14844,-1.14843 l -6e-5,-3.72565 6.6415,-0.004 c 0.34321,1.07705 0.94551,2.09364 1.79943,2.94756 2.86414,2.86413 7.50697,2.86448 10.37137,6e-5 2.86405,-2.86405 2.86414,-7.50733 0,-10.37146 -2.86431,-2.8643108 -7.50737,-2.8640008 -10.37141,4e-5 -0.85392,0.85392 -1.45613,1.87069 -1.79939,2.94769 z m 20.3681401,0.24701 c 1.10093,-1.10093 2.88824,-1.10093 3.98909,-6e-5 1.10097,1.10098 1.1008,2.88811 -1.3e-4,3.98904 -1.10093,1.10093 -2.88793,1.10098 -3.98891,0 -1.1008,-1.1008 -1.10093,-2.88806 -4e-5,-3.98895 z"
     fill="#010101"
     fill-rule="evenodd"
     id="path1"
     style="fill:#ffffff;fill-opacity:1;stroke:#000000;stroke-width:2.5;stroke-dasharray:none;stroke-opacity:1"
     inkscape:transform-center-x="-131.28323"
     inkscape:transform-center-y="154.53319" /></svg>
