<?xml version="1.0" encoding="UTF-8" standalone="no"?>
<svg
   enable-background="new 0 0 500 500"
   height="40"
   id="Layer_1"
   version="1.1"
   viewBox="0 0 40 40"
   width="40"
   xml:space="preserve"
   sodipodi:docname="behind-keys.svg"
   inkscape:version="1.3.2 (091e20ef0f, 2023-11-25)"
   xmlns:inkscape="http://www.inkscape.org/namespaces/inkscape"
   xmlns:sodipodi="http://sodipodi.sourceforge.net/DTD/sodipodi-0.dtd"
   xmlns="http://www.w3.org/2000/svg"
   xmlns:svg="http://www.w3.org/2000/svg"><defs
     id="defs1" /><sodipodi:namedview
     id="namedview1"
     pagecolor="#ffffff"
     bordercolor="#000000"
     borderopacity="0.25"
     inkscape:showpageshadow="2"
     inkscape:pageopacity="0.0"
     inkscape:pagecheckerboard="0"
     inkscape:deskcolor="#d1d1d1"
     inkscape:zoom="21.20189"
     inkscape:cx="23.323393"
     inkscape:cy="19.243568"
     inkscape:window-width="3840"
     inkscape:window-height="2091"
     inkscape:window-x="2560"
     inkscape:window-y="0"
     inkscape:window-maximized="1"
     inkscape:current-layer="Layer_1" /><path
     clip-rule="evenodd"
     d="m 17.75851,33.716425 c -8.3e-4,1.23642 1.00478,2.24204 2.2416,2.2416 1.23669,3e-4 2.24217,-1.00518 2.23765,-2.23765 l 0.004,-0.8894 3.72609,-4.4e-4 c 0.63773,4.9e-4 1.1484,-0.51018 1.14835,-1.14835 v -5.55352 c 5.6e-4,-0.63764 -0.51027,-1.14848 -1.14843,-1.14844 l -3.72565,6e-5 -0.004,-6.6415 c 1.07705,-0.34321 2.09364,-0.94551 2.94756,-1.79943 2.86413,-2.86414 2.86448,-7.5069697 6e-5,-10.3713697 -2.86405,-2.86405 -7.50733,-2.86414 -10.37146,0 -2.864311,2.86431 -2.864001,7.5073697 4e-5,10.3714097 0.85392,0.85392 1.87069,1.45613 2.94769,1.79939 z m 0.24701,-20.36814 c -1.10093,-1.10093 -1.10093,-2.88824 -6e-5,-3.9890897 1.10098,-1.10097 2.88811,-1.1008 3.98904,1.3e-4 1.10093,1.1009297 1.10098,2.8879297 0,3.9889097 -1.1008,1.1008 -2.88806,1.10093 -3.98895,4e-5 z"
     fill="#010101"
     fill-rule="evenodd"
     id="path1"
     style="fill:#ffffff;fill-opacity:1;stroke:#000000;stroke-width:7;stroke-dasharray:none;stroke-opacity:1;paint-order:stroke fill markers"
     inkscape:transform-center-x="23.128628"
     inkscape:transform-center-y="-0.52304897" /></svg>
