<?xml version="1.0" encoding="utf-8"?>
<!-- Generator: Adobe Illustrator 25.0.1, SVG Export Plug-In . SVG Version: 6.00 Build 0)  -->
<svg version="1.1" id="Ebene_1" xmlns="http://www.w3.org/2000/svg" xmlns:xlink="http://www.w3.org/1999/xlink" x="0px" y="0px"
	 viewBox="0 0 500 500" style="enable-background:new 0 0 500 500;" xml:space="preserve">
<style type="text/css">
	.st0{fill-rule:evenodd;clip-rule:evenodd;fill:#FFFFFF;}
	.st1{clip-path:url(#SVGID_2_);}
	.st2{clip-path:url(#SVGID_4_);fill:#D62300;}
	.st3{clip-path:url(#SVGID_6_);fill:#D62300;}
	.st4{clip-path:url(#SVGID_8_);fill:#D62300;}
	.st5{clip-path:url(#SVGID_10_);fill:#FF8533;}
	.st6{clip-path:url(#SVGID_12_);fill:#FF8533;}
	.st7{clip-path:url(#SVGID_14_);fill:#D62300;}
	.st8{clip-path:url(#SVGID_16_);fill:#D62300;}
	.st9{clip-path:url(#SVGID_18_);fill:#D62300;}
</style>
<circle class="st0" cx="250" cy="250" r="248.4"/>
<g id="BK_x5F_LOGO_x5F_PRIMARY_x5F__xAE__x5F_ST_x5F_RGB_1_">
	<g>
		<g>
			<defs>
				<rect id="SVGID_1_" x="-352.4" y="-98.9" width="1204.8" height="677.7"/>
			</defs>
			<clipPath id="SVGID_2_">
				<use xlink:href="#SVGID_1_"  style="overflow:visible;"/>
			</clipPath>
			<g class="st1">
				<g>
					<defs>
						<rect id="SVGID_3_" x="-352.4" y="-98.9" width="1204.8" height="677.7"/>
					</defs>
					<clipPath id="SVGID_4_">
						<use xlink:href="#SVGID_3_"  style="overflow:visible;"/>
					</clipPath>
					<path class="st2" d="M410.6,258.2c-6.7-4.9-16.8-8.5-31-8.5c-25.5,0-50.4,16.1-50.4,53.6c0,35.8,24.9,52.6,49.4,52.6
						c25.7,0,42.1-15.9,42.1-39.1c0-14.7-9.2-24.9-27.7-24.9h-5.4c-9.6,0-17.1,4.5-17.1,14.3c0,9,8.1,13.3,14.1,13.3
						c3,0,5,0.9,5,3.2c0,2.8-3.5,4.7-7.2,4.7c-12.4,0-20.8-8.4-20.8-24.1c0-17.4,11.5-23.8,20.4-23.8c10.8,0,12.6,5.5,20.2,5.5
						c8.8,0,14.7-7.1,14.7-14.3C416.9,265.2,414.5,261,410.6,258.2"/>
				</g>
				<g>
					<defs>
						<rect id="SVGID_5_" x="-352.4" y="-98.9" width="1204.8" height="677.7"/>
					</defs>
					<clipPath id="SVGID_6_">
						<use xlink:href="#SVGID_5_"  style="overflow:visible;"/>
					</clipPath>
					<path class="st3" d="M264.8,313.2v23.7c0,10.6-6.1,19.1-17.4,19.1c-11.3,0-17.4-8.4-17.4-19.1v-67.7c0-10.8,6.4-19.5,17.9-19.5
						c6.9,0,12.9,2.6,18.7,13.9l15.2,29.6c0.8,1.5,1.4,2.1,2.3,2.1c1.2,0,1.9-0.9,1.9-2.8v-23.7c0-10.6,6.1-19.1,17.4-19.1
						s17.4,8.4,17.4,19.1v67.7c0,10.8-6.4,19.5-17.9,19.5c-6.7,0-12.9-2.6-18.7-13.9L269,312.5c-0.8-1.5-1.4-2.1-2.3-2.1
						C265.4,310.3,264.8,311.2,264.8,313.2"/>
				</g>
				<g>
					<defs>
						<rect id="SVGID_7_" x="-352.4" y="-98.9" width="1204.8" height="677.7"/>
					</defs>
					<clipPath id="SVGID_8_">
						<use xlink:href="#SVGID_7_"  style="overflow:visible;"/>
					</clipPath>
					<path class="st4" d="M115.5,336.5v-15.6c0-1.3,0.5-2.3,1.9-2.3c1.8,0,2.2,1.8,2.6,2.6c2.5,6,9.9,18.8,16.6,26.4
						c4.6,5,10.3,8.2,16.3,8.2c10.2,0,18.7-8.9,18.7-18.4c0-5.9-2.5-10.3-7.3-15.6c-6.1-6.7-13.4-15.4-16-19.5c-1-1.5-1.1-2.5-1.1-3
						c0-1.2,0.7-2.1,2-3.3c3.1-2.8,10.6-10,14.8-16.4c3.2-4.9,4.5-9.4,4.5-13.1c0-9.5-8.7-17-18.1-17c-6,0-11.7,3.4-15.6,9.6
						c-5.1,8.3-11.3,18-15.2,21.8c-1,1-1.5,1.2-2.3,1.2c-1.3,0-1.9-0.9-1.9-2.3v-11c0-10.7-6.4-19.4-17.9-19.4
						c-11.6,0-17.9,8.7-17.9,19.4v67.5c0,10.7,6.2,19.4,17.9,19.4C109.1,355.9,115.5,347.2,115.5,336.5"/>
				</g>
				<g>
					<defs>
						<rect id="SVGID_9_" x="-352.4" y="-98.9" width="1204.8" height="677.7"/>
					</defs>
					<clipPath id="SVGID_10_">
						<use xlink:href="#SVGID_9_"  style="overflow:visible;"/>
					</clipPath>
					<path class="st5" d="M411.6,366.9c6.4,0,9.2,3.1,9.2,8.4c0,9.4-8.7,22.6-25.7,32.2c-28.5,16.1-77.3,20.7-144.9,20.7
						s-116.4-4.6-144.9-20.7c-17.1-9.6-25.7-22.8-25.7-32.2c0-5.4,2.8-8.4,9.2-8.4H411.6z"/>
				</g>
				<g>
					<defs>
						<rect id="SVGID_11_" x="-352.4" y="-98.9" width="1204.8" height="677.7"/>
					</defs>
					<clipPath id="SVGID_12_">
						<use xlink:href="#SVGID_11_"  style="overflow:visible;"/>
					</clipPath>
					<path class="st6" d="M411.6,157.9H88.8c-6.4,0-9.2-3.3-9.2-9.2c0-35,52.7-96.9,170.6-96.9c116.9,0,170.6,61.9,170.6,96.9
						C420.8,154.6,418,157.9,411.6,157.9"/>
				</g>
				<g>
					<defs>
						<rect id="SVGID_13_" x="-352.4" y="-98.9" width="1204.8" height="677.7"/>
					</defs>
					<clipPath id="SVGID_14_">
						<use xlink:href="#SVGID_13_"  style="overflow:visible;"/>
					</clipPath>
					<path class="st7" d="M390.7,201.5c-1.9,0-2.7-1.1-2.7-2.5v-7.4c0-1.4,0.9-2.5,2.7-2.5h1.5c4.6,0,6,3.3,6,6.1
						c0,2.7-1.4,6.4-6,6.4h-1.5V201.5z M306.3,176c-4.6-3.4-11.1-5.9-20.7-5.9c-17,0-33.5,11.2-33.5,37c0,24.8,16.5,36.2,32.9,36.2
						c17.2,0,28-11,28-26.9c0-10.2-6.1-17.2-18.4-17.2h-3.5c-6.5,0-11.5,3.1-11.5,10c0,6.1,5.4,9.1,9.4,9.1c2.1,0,3.4,0.7,3.4,2.2
						c0,2-2.3,3.3-4.9,3.3c-8.2,0-13.8-5.8-13.8-16.6c0-12,7.7-16.4,13.6-16.4c7.2,0,8.4,3.7,13.5,3.7c5.8,0,9.7-4.8,9.7-9.9
						C310.4,180.9,308.8,178,306.3,176 M349.3,215.4h-7.6c-1.9,0-2.7,1.1-2.7,2.5v2.1c0,1.4,0.9,2.5,2.7,2.5h9.9
						c6.1,0,11,3.6,11,10.1c0,6.6-4.8,10.2-11,10.2h-20.7c-8.7,0-12.8-5-12.8-11.8v-48.3c0-6.8,4.2-11.8,12.8-11.8h20.7
						c6.1,0,11,3.6,11,10.1c0,6.6-4.8,10.2-11,10.2h-9.9c-1.9,0-2.7,1.1-2.7,2.5v1.8c0,1.4,0.9,2.5,2.7,2.5h7.6
						c5.3,0,9.4,3.2,9.4,8.8C358.7,212.2,354.6,215.4,349.3,215.4 M367.5,231.5c0,6.6,3.8,11.8,10.8,11.8s10.8-5.3,10.8-11.8v-11.6
						c0-1.4,0.7-2.1,1.8-2.1c1.3,0,1.8,0.8,2,2.1c1,5.6,3.6,13.1,6.6,17c3.7,4.9,7.2,6.5,10.7,6.5c5.7,0,10.6-4.5,10.6-10.1
						c0-3.7-1.5-6.5-3.5-9c-3.7-4.7-6-7.8-7.4-11.6c-0.3-0.9-0.1-1.6,0.9-2.4c3.4-2.6,7.3-8.4,7.3-17.6c0-13.9-11.5-21.8-25.4-21.8
						h-12.4c-8.7,0-12.8,5-12.8,11.8V231.5z M197.6,231.5c0,6.6,3.8,11.8,10.8,11.8s10.8-5.3,10.8-11.8v-11.6c0-1.4,0.7-2.1,1.8-2.1
						c1.3,0,1.8,0.8,2,2.1c1,5.6,3.6,13.1,6.6,17c3.7,4.9,7.2,6.5,10.7,6.5c5.7,0,10.6-4.5,10.6-10.1c0-3.7-1.5-6.5-3.5-9
						c-3.2-4.2-6-7.8-7.4-11.6c-0.3-0.9-0.1-1.6,0.9-2.4c3.4-2.6,7.3-8.4,7.3-17.6c0-13.9-11.5-21.8-25.4-21.8h-12.4
						c-8.7,0-12.8,5-12.8,11.8L197.6,231.5L197.6,231.5z M220.9,201.5c-1.9,0-2.7-1.1-2.7-2.5v-7.4c0-1.4,0.9-2.5,2.7-2.5h1.5
						c4.6,0,6,3.3,6,6.1c0,2.7-1.4,6.4-6,6.4h-1.5V201.5z M101.6,212.7h2c5.3,0,6.8,3.5,6.8,6.7c0,2.8-1.5,6.9-6.8,6.9h-2
						c-1.9,0-2.7-1.1-2.7-2.5v-8.5C98.9,213.8,99.7,212.7,101.6,212.7 M101.6,199.6c-1.9,0-2.7-1.1-2.7-2.5v-7.4
						c0-1.4,0.9-2.5,2.7-2.5h1.4c4.7,0,6.1,3.3,6.1,6.1c0,2.6-1.4,6.4-6.1,6.4h-1.4V199.6z M92.4,242.7h15.4
						c14.6,0,23.4-9.7,23.4-21.9c0-9.7-5.8-14.2-7.1-15.3c-0.5-0.4-1.1-0.9-1.1-1.3c0-0.5,0.3-0.8,0.9-1.4c2.1-2.4,4.2-6.2,4.2-11.8
						c0-13.1-8.9-20.2-22.7-20.2h-13c-8.7,0-12.8,5-12.8,11.8v48.3C79.6,237.7,83.7,242.7,92.4,242.7 M163.5,243.3
						c-17.7,0-27-10.6-27-24v-36.9c0-6.6,3.8-11.8,10.8-11.8s11,5.3,11,11.8v35.7c0,2.6,1.3,5.7,5.3,5.7c3.9,0,5.5-3.1,5.5-5.7
						v-35.7c0-6.6,3.8-11.8,10.8-11.8s10.8,5.3,10.8,11.8v36.9C190.6,232.7,181.2,243.3,163.5,243.3"/>
				</g>
				<g>
					<defs>
						<rect id="SVGID_15_" x="-352.4" y="-98.9" width="1204.8" height="677.7"/>
					</defs>
					<clipPath id="SVGID_16_">
						<use xlink:href="#SVGID_15_"  style="overflow:visible;"/>
					</clipPath>
					<path class="st8" d="M217.2,270.3c0-11.5-6.7-20.7-18.9-20.7c-12.3,0-18.9,9.2-18.9,20.7v64.8c0,11.5,6.7,20.7,18.9,20.7
						c12.3,0,18.9-9.2,18.9-20.7V270.3z"/>
				</g>
				<g>
					<defs>
						<rect id="SVGID_17_" x="-352.4" y="-98.9" width="1204.8" height="677.7"/>
					</defs>
					<clipPath id="SVGID_18_">
						<use xlink:href="#SVGID_17_"  style="overflow:visible;"/>
					</clipPath>
					<path class="st9" d="M405.3,418.9c0-2.9,2.3-5.4,5.4-5.4s5.4,2.5,5.4,5.4c0,3.2-2.3,5.4-5.4,5.4
						C407.6,424.4,405.3,422.1,405.3,418.9 M414.9,418.9c0-2.7-2.1-4.3-4.2-4.3s-4.2,1.6-4.2,4.3c0,2.8,2.1,4.3,4.2,4.3
						C412.8,423.3,414.9,421.8,414.9,418.9 M408.8,421.2v-4.6c0-0.3,0.3-0.6,0.6-0.6h1.5c1.2,0,2.1,0.7,2.1,1.7
						c0,0.8-0.5,1.6-1.6,1.8l1.2,1.4c0.1,0.1,0.2,0.3,0.2,0.4c0,0.3-0.2,0.6-0.6,0.6c-0.2,0-0.4-0.1-0.5-0.3l-1.6-1.9H410v1.6
						c0,0.3-0.3,0.6-0.6,0.6C409.1,421.8,408.8,421.5,408.8,421.2 M410.8,418.6c0.7,0,1-0.3,1-0.8s-0.3-0.7-0.9-0.7H410v1.5H410.8z"
						/>
				</g>
			</g>
		</g>
	</g>
</g>
</svg>
