<?xml version="1.0" encoding="UTF-8" standalone="no"?>
<svg
   width="16"
   height="16"
   fill="currentColor"
   class="bi bi-check"
   viewBox="0 0 16 16"
   version="1.1"
   id="svg6801"
   xmlns="http://www.w3.org/2000/svg"
   xmlns:svg="http://www.w3.org/2000/svg">
  <defs
     id="defs6805" />
  <path
     id="path6799"
     d="m 11.955078,3.7792969 c -0.592742,-0.1596606 -1.26296,0.00976 -1.707031,0.4335937 a 1.0464412,1.0464412 0 0 0 -0.01172,0.013672 c -0.03391,0.033449 -0.06563,0.068535 -0.0957,0.1054687 a 1.0464412,1.0464412 0 0 0 -0.01172,0.013672 L 7.3847656,7.84375 l -1.25,-1.2480469 C 5.4733851,5.9146938 4.2474386,5.9049052 3.5761719,6.5761719 2.9049052,7.2474386 2.9146938,8.4733851 3.5957031,9.1347656 l 2.6347657,2.6347654 c 0.6804811,0.681255 1.9305313,0.658537 2.5859374,-0.04687 a 1.0464412,1.0464412 0 0 0 0.050781,-0.06055 L 12.810547,6.7265625 C 13.224682,6.2749345 13.382956,5.6023598 13.212891,5.0136719 13.042826,4.4249839 12.55016,3.9405025 11.958984,3.7792969 a 1.0464412,1.0464412 0 0 0 -0.0039,0 z"
     style="fill:#00ff00;fill-opacity:1;stroke:#000000;stroke-width:1.46104;stroke-dasharray:none;stroke-opacity:1"
     transform="matrix(1.3690067,0,0,1.3690067,-3.1846986,-2.9542652)" />
</svg>
