<?xml version="1.0" encoding="UTF-8" standalone="no"?>
<!-- Created with Inkscape (http://www.inkscape.org/) -->

<svg
   width="16"
   height="16"
   viewBox="0 0 4.2333329 4.2333329"
   version="1.1"
   id="svg5"
   xmlns="http://www.w3.org/2000/svg"
   xmlns:svg="http://www.w3.org/2000/svg">
  <defs
     id="defs2" />
  <g
     id="layer1">
    <path
       id="path894"
       style="fill:#000000;fill-opacity:1;stroke:#ffffff;stroke-width:0.529167;stroke-linecap:round;stroke-dasharray:none;stroke-opacity:1"
       d="M 2.0847364,0.26522593 A 1.4036603,1.4036162 0 0 0 1.7748765,0.30978541 1.4036603,1.4036162 0 0 0 0.72395855,1.6877011 c -4.868e-5,2.186e-4 4.483e-5,4.656e-4 0,6.857e-4 -4.8845e-4,0.0024 -6.8559e-4,0.00498 -6.8559e-4,0.00753 v 2.2355144 c 0,0.020377 0.0166406,0.037019 0.0370184,0.037019 H 3.4948717 c 0.020378,0 0.036333,-0.01664 0.036333,-0.037019 V 1.6959276 c 0,-0.00255 -1.971e-4,-0.00515 -6.856e-4,-0.00753 A 1.4036603,1.4036162 0 0 0 3.4914444,1.3380781 l -0.00753,-0.029478 A 1.4036603,1.4036162 0 0 0 2.0847364,0.26522593 Z" />
  </g>
</svg>
