<?xml version="1.0" encoding="UTF-8" standalone="no"?>
<!-- Created with Inkscape (http://www.inkscape.org/) -->

<svg
   width="16"
   height="16"
   viewBox="0 0 4.2333329 4.2333329"
   version="1.1"
   id="svg5"
   sodipodi:docname="entrance.svg"
   inkscape:export-filename="unmapped-entrance.svg"
   inkscape:export-xdpi="96"
   inkscape:export-ydpi="96"
   xmlns:inkscape="http://www.inkscape.org/namespaces/inkscape"
   xmlns:sodipodi="http://sodipodi.sourceforge.net/DTD/sodipodi-0.dtd"
   xmlns="http://www.w3.org/2000/svg"
   xmlns:svg="http://www.w3.org/2000/svg">
  <sodipodi:namedview
     id="namedview137"
     pagecolor="#ffffff"
     bordercolor="#000000"
     borderopacity="0.25"
     inkscape:showpageshadow="2"
     inkscape:pageopacity="0.0"
     inkscape:pagecheckerboard="0"
     inkscape:deskcolor="#d1d1d1"
     showgrid="false" />
  <defs
     id="defs2" />
  <g
     id="layer1">
    <path
       id="path894"
       style="fill:#000000;fill-opacity:1;stroke:#ffffff;stroke-width:0.529167;stroke-linecap:round;stroke-dasharray:none;stroke-opacity:1"
       d="M 2.0847364,0.26522593 A 1.4036603,1.4036162 0 0 0 1.7748765,0.30978541 1.4036603,1.4036162 0 0 0 0.72395855,1.6877011 c -4.868e-5,2.186e-4 4.483e-5,4.656e-4 0,6.857e-4 -4.8845e-4,0.0024 -6.8559e-4,0.00498 -6.8559e-4,0.00753 v 2.2355144 c 0,0.020377 0.0166406,0.037019 0.0370184,0.037019 H 3.4948717 c 0.020378,0 0.036333,-0.01664 0.036333,-0.037019 V 1.6959276 c 0,-0.00255 -1.971e-4,-0.00515 -6.856e-4,-0.00753 A 1.4036603,1.4036162 0 0 0 3.4914444,1.3380781 l -0.00753,-0.029478 A 1.4036603,1.4036162 0 0 0 2.0847364,0.26522593 Z" />
  </g>
  <path
     d="m 1.3994374,1.5854123 a 0.06270624,0.0628739 0 0 0 0.063765,0.065527 h 0.2182808 c 0.036513,0 0.065617,-0.029978 0.070379,-0.066323 0.023813,-0.1740307 0.142875,-0.3008396 0.3550708,-0.3008396 0.1815041,0 0.3476624,0.090995 0.3476624,0.3098596 0,0.1684596 -0.098954,0.2459244 -0.2553229,0.3637135 C 2.0212082,2.0870771 1.8801853,2.2385581 1.8902394,2.4844826 l 7.938e-4,0.057568 a 0.06614583,0.06632269 0 0 0 0.066146,0.065261 h 0.2145771 a 0.06614583,0.06632269 0 0 0 0.066146,-0.066322 v -0.027855 c 0,-0.1904787 0.072231,-0.2459245 0.2672291,-0.394222 0.1611313,-0.1228296 0.3291417,-0.2591891 0.3291417,-0.5454378 0,-0.4008542 -0.3376083,-0.59451657 -0.7072312,-0.59451657 -0.3352271,0 -0.7024687,0.15652157 -0.7276045,0.60645407 z m 0.4119562,1.5288706 c 0,0.1413999 0.1124479,0.2459245 0.2672292,0.2459245 0.1611312,0 0.2719916,-0.1045246 0.2719916,-0.2459245 0,-0.1464405 -0.111125,-0.2493733 -0.2722562,-0.2493733 -0.1545167,0 -0.2669646,0.1029328 -0.2669646,0.2493733 z"
     id="path2"
     style="fill:#ffffff;fill-opacity:1;stroke-width:0.264936" />
</svg>
