<?xml version="1.0" encoding="UTF-8" standalone="no"?>
<svg
   version="1.1"
   width="15.999308"
   height="15.999858"
   id="svg1"
   sodipodi:docname="hint-sign.svg"
   inkscape:version="1.4 (e7c3feb100, 2024-10-09)"
   xmlns:inkscape="http://www.inkscape.org/namespaces/inkscape"
   xmlns:sodipodi="http://sodipodi.sourceforge.net/DTD/sodipodi-0.dtd"
   xmlns="http://www.w3.org/2000/svg"
   xmlns:svg="http://www.w3.org/2000/svg">
  <defs
     id="defs1" />
  <sodipodi:namedview
     id="namedview1"
     pagecolor="#ffffff"
     bordercolor="#000000"
     borderopacity="0.25"
     inkscape:showpageshadow="2"
     inkscape:pageopacity="0.0"
     inkscape:pagecheckerboard="0"
     inkscape:deskcolor="#d1d1d1"
     inkscape:zoom="58.4375"
     inkscape:cx="5.655615"
     inkscape:cy="6.1090909"
     inkscape:window-width="3840"
     inkscape:window-height="2091"
     inkscape:window-x="2560"
     inkscape:window-y="0"
     inkscape:window-maximized="1"
     inkscape:current-layer="svg1" />
  <path
     d="m 7.0709712,1.9608368 c 0.2384758,0.2017827 0.3802286,0.4186334 0.4332786,0.729861 0.00234,0.051086 0.00311,0.1023052 0.00234,0.1534696 -9.34e-5,0.028433 -1.793e-4,0.056789 -2.728e-4,0.086073 -2.338e-4,0.029369 -4.676e-4,0.058663 -7.093e-4,0.088893 -1.247e-4,0.029838 -2.495e-4,0.059758 -3.741e-4,0.090526 -3.273e-4,0.073505 -7.795e-4,0.147025 -0.00156,0.2205377 0.02884,-1.563e-4 0.02884,-1.563e-4 0.058303,-3.125e-4 0.469656,-0.00234 0.9393122,-0.00469 1.408976,-0.00547 0.2271347,-5.701e-4 0.4542617,-0.00157 0.6813886,-0.00234 0.1981082,-7.812e-4 0.3962148,-0.00157 0.5943228,-0.00234 0.104776,-1.405e-4 0.209534,-4.765e-4 0.314302,-0.00157 0.0989,-7.577e-4 0.19778,-7.811e-4 0.296678,-7.811e-4 0.05301,-3.9e-5 0.106038,-6.328e-4 0.159057,-0.00157 0.623514,0.00312 0.984046,0.3349974 1.39903,0.7536934 0.04263,0.04265 0.08521,0.085268 0.127856,0.1278795 0.08893,0.089003 0.177654,0.1782003 0.266238,0.2675387 0.112961,0.1138972 0.226411,0.2272945 0.340018,0.3405358 0.088,0.087823 0.175714,0.1759114 0.263355,0.2640702 0.0417,0.041869 0.08349,0.083707 0.125361,0.1254268 0.362964,0.3621653 0.662791,0.6983266 0.682644,1.2366064 -0.0089,0.6580748 -0.464371,1.031426 -0.893308,1.4636278 -0.01964,0.019762 -0.03921,0.039525 -0.05949,0.059912 -0.103621,0.1044767 -0.207329,0.2088675 -0.311105,0.3131881 -0.106553,0.1071404 -0.212778,0.214609 -0.318926,0.3221477 -0.08234,0.083293 -0.164933,0.1663348 -0.247594,0.2493147 -0.03929,0.039525 -0.07842,0.079091 -0.117496,0.1187793 -0.320515,0.3253739 -0.614947,0.5959356 -1.094901,0.609262 -0.06851,2.42e-4 -0.137091,2.34e-5 -0.205628,-5.625e-4 -0.03804,-2.34e-5 -0.076,-7.8e-6 -0.114051,3.9e-5 -0.102367,2.34e-5 -0.204726,-4.687e-4 -0.307084,-7.811e-4 -0.107287,-5.315e-4 -0.214572,-5.784e-4 -0.321857,-6.72e-4 -0.202793,-2.579e-4 -0.4055859,-7.813e-4 -0.608378,-0.00157 -0.2310244,-7.811e-4 -0.4620486,-0.00157 -0.6930806,-0.00157 -0.474902,-7.811e-4 -0.9497959,-0.00234 -1.42469,-0.00391 7.8e-5,0.019217 1.559e-4,0.038431 2.339e-4,0.058273 0.00156,0.4687977 0.00311,0.9375977 0.00389,1.4064017 4.288e-4,0.226718 7.794e-4,0.453425 0.00234,0.680135 7.795e-4,0.197697 0.00156,0.395387 0.00156,0.593083 1.091e-4,0.104595 3.663e-4,0.209181 7.794e-4,0.313782 5.613e-4,0.09863 7.327e-4,0.197261 6.08e-4,0.295895 3.9e-5,0.05304 4.833e-4,0.106156 7.795e-4,0.159226 -0.00156,0.345479 -0.080198,0.608497 -0.316461,0.863997 -0.2266578,0.217224 -0.4944024,0.312569 -0.806436,0.307906 C 6.0910599,14.208899 5.8558889,14.091507 5.652707,13.871798 5.4079953,13.569663 5.391736,13.242921 5.3928427,12.869929 c -7.8e-6,-0.03585 -7.8e-6,-0.07162 -1.56e-5,-0.108561 -7.8e-6,-0.09776 1.559e-4,-0.195518 3.508e-4,-0.293277 1.714e-4,-0.102345 1.949e-4,-0.204689 2.26e-4,-0.307033 8.58e-5,-0.193588 3.118e-4,-0.387177 5.924e-4,-0.580766 3.117e-4,-0.220484 4.598e-4,-0.440965 6.002e-4,-0.66145 2.883e-4,-0.453354 7.795e-4,-0.906708 0.00156,-1.3600642 -0.051132,3.671e-4 -0.051132,3.671e-4 -0.1032238,7.498e-4 -0.3218705,0.00234 -0.6437486,0.00391 -0.9656267,0.00469 -0.1654639,5.859e-4 -0.33092,0.00157 -0.496376,0.00234 -0.1598439,0.00157 -0.3196724,0.00157 -0.479524,0.00234 -0.060798,2.031e-4 -0.1216272,6.015e-4 -0.1824406,0.00157 C 2.772861,9.5743774 2.4425257,9.5751604 2.1241551,9.3081532 1.9301336,9.1151317 1.7995973,8.8590758 1.7875625,8.5838507 1.7874456,8.5518243 1.7873287,8.5197978 1.7872039,8.4868651 1.7871027,8.4689771 1.7870013,8.4510111 1.7869,8.4325763 1.786596,8.3727414 1.7864869,8.3129377 1.7863777,8.2531184 1.7862063,8.210156 1.7860192,8.1671389 1.7858244,8.1241531 1.7852475,7.9831192 1.7850448,7.8420853 1.7850448,7.7010515 1.7849358,7.6523867 1.7848188,7.6036909 1.7847019,7.5550106 1.7841796,7.3261614 1.7839224,7.0973125 1.7839224,6.8684713 1.7836574,6.6049867 1.783143,6.3415178 1.7815841,6.0780411 1.7808046,5.8739696 1.7800251,5.6699061 1.7800251,5.4658346 1.7799627,5.3441573 1.7797212,5.2224877 1.7792457,5.1008104 1.7785909,4.9861554 1.7784818,4.8715005 1.7787624,4.7568456 1.778778,4.7150548 1.7786065,4.6732095 1.7782246,4.6314032 1.7751067,4.2326886 1.8376195,3.9026982 2.1203532,3.6114444 2.3651973,3.3800958 2.6179139,3.3261115 2.9443754,3.3274238 c 0.026502,-7.9e-6 0.053082,-7.9e-6 0.080378,-1.56e-5 0.087471,2.33e-5 0.1749421,2.343e-4 0.262421,4.53e-4 0.06072,5.47e-5 0.1214556,9.37e-5 0.1821832,1.172e-4 0.1596959,1.095e-4 0.3193839,3.828e-4 0.4790798,6.874e-4 0.1630086,2.891e-4 0.3260249,4.14e-4 0.4890335,5.546e-4 0.3197425,2.968e-4 0.6394848,7.733e-4 0.9592273,0.00157 -2.023e-4,-0.036011 -4.049e-4,-0.0721 -6.076e-4,-0.1092116 C 5.3959267,3.1736909 5.3957708,3.1258154 5.3956149,3.0779398 5.3954668,3.0542714 5.3953265,3.030603 5.3951706,3.0061535 5.3943908,2.6618111 5.4375729,2.3625664 5.6771401,2.0983553 6.0618739,1.7379086 6.6206456,1.6411885 7.0708854,1.961399 Z"
     fill="#000000"
     id="path1"
     style="fill:#ffffff;fill-opacity:1;stroke:#000000;stroke-width:3.557;stroke-linecap:butt;stroke-linejoin:round;stroke-dasharray:none;stroke-opacity:1;paint-order:stroke fill markers" />
</svg>
