<?xml version="1.0" encoding="UTF-8" standalone="no"?>
<svg
   width="15.163406"
   height="16.021198"
   fill="currentColor"
   class="bi bi-house-door-fill"
   viewBox="0 0 15.163406 16.021198"
   version="1.1"
   id="svg2475"
   sodipodi:docname="house.svg"
   inkscape:export-filename="../Syncthing/Magpie/static/images/house.svg"
   inkscape:export-xdpi="96"
   inkscape:export-ydpi="96"
   xmlns:inkscape="http://www.inkscape.org/namespaces/inkscape"
   xmlns:sodipodi="http://sodipodi.sourceforge.net/DTD/sodipodi-0.dtd"
   xmlns="http://www.w3.org/2000/svg"
   xmlns:svg="http://www.w3.org/2000/svg">
  <defs
     id="defs2479" />
  <sodipodi:namedview
     id="namedview2477"
     pagecolor="#ffffff"
     bordercolor="#000000"
     borderopacity="0.25"
     inkscape:showpageshadow="2"
     inkscape:pageopacity="0.0"
     inkscape:pagecheckerboard="0"
     inkscape:deskcolor="#d1d1d1"
     showgrid="false" />
  <path
     d="m 6.2934278,13.571782 v -3.007584 c 0,-0.210231 0.2147129,-0.424753 0.4294254,-0.424753 h 1.7177009 c 0.2147125,0 0.4294252,0.214522 0.4294252,0.429043 v 3.003294 a 0.42942521,0.42904214 0 0 0 0.4294256,0.429043 h 3.4354001 a 0.42942521,0.42904214 0 0 0 0.429426,-0.429043 V 7.5651924 A 0.42942521,0.42904214 0 0 0 13.038839,7.2614303 L 11.875956,6.1004426 V 3.2747708 A 0.42942521,0.42904214 0 0 0 11.446531,2.8457287 h -0.85885 A 0.42942521,0.42904214 0 0 0 10.158255,3.2747708 V 4.3842739 L 7.8857368,2.1129249 a 0.42942521,0.42904214 0 0 0 -0.6080663,0 L 2.1245677,7.2614303 A 0.42942521,0.42904214 0 0 0 1.9991756,7.5651924 v 6.0065896 a 0.42942521,0.42904214 0 0 0 0.4294252,0.429043 h 3.435402 a 0.42942521,0.42904214 0 0 0 0.429425,-0.429043 z"
     id="path2473"
     style="stroke:#ffffff;stroke-width:3.99835;stroke-linecap:round;stroke-linejoin:miter;stroke-dasharray:none;stroke-opacity:1;paint-order:stroke fill markers" />
  <rect
     style="fill:#ffffff;fill-opacity:1;stroke:none;stroke-width:0.853625;paint-order:stroke markers fill"
     id="rect285-3"
     width="8.2210779"
     height="2.0208795"
     x="3.4875429"
     y="14.000319"
     ry="0.060669489" />
  <rect
     style="fill:#000000;fill-opacity:1;stroke:none;stroke-width:1.001;paint-order:stroke markers fill"
     id="rect285"
     width="5.1501875"
     height="4.4358873"
     x="5.0599475"
     y="9.5635576"
     ry="0.13317123" />
</svg>
