<?xml version="1.0" encoding="UTF-8" standalone="no"?>
<svg
   width="16"
   height="16"
   fill="currentColor"
   class="bi bi-house-door-fill"
   viewBox="0 0 16 16"
   version="1.1"
   id="svg2475"
   sodipodi:docname="house-door-fill.svg"
   inkscape:export-filename="../Syncthing/Magpie/static/images/house.svg"
   inkscape:export-xdpi="96"
   inkscape:export-ydpi="96"
   xmlns:inkscape="http://www.inkscape.org/namespaces/inkscape"
   xmlns:sodipodi="http://sodipodi.sourceforge.net/DTD/sodipodi-0.dtd"
   xmlns="http://www.w3.org/2000/svg"
   xmlns:svg="http://www.w3.org/2000/svg">
  <defs
     id="defs2479" />
  <sodipodi:namedview
     id="namedview2477"
     pagecolor="#ffffff"
     bordercolor="#000000"
     borderopacity="0.25"
     inkscape:showpageshadow="2"
     inkscape:pageopacity="0.0"
     inkscape:pagecheckerboard="0"
     inkscape:deskcolor="#d1d1d1"
     showgrid="false" />
  <path
     d="m 6.7117241,13.578041 v -3.007584 c 0,-0.210231 0.2147129,-0.424753 0.4294254,-0.424753 h 1.7177009 c 0.2147125,0 0.4294252,0.214522 0.4294252,0.429043 v 3.003294 a 0.42942521,0.42904214 0 0 0 0.4294256,0.429043 h 3.4353998 a 0.42942521,0.42904214 0 0 0 0.429426,-0.429043 V 7.5714517 A 0.42942521,0.42904214 0 0 0 13.457135,7.2676896 L 12.294252,6.1067019 V 3.2810301 A 0.42942521,0.42904214 0 0 0 11.864827,2.851988 h -0.85885 A 0.42942521,0.42904214 0 0 0 10.576551,3.2810301 V 4.3905332 L 8.3040331,2.1191842 a 0.42942521,0.42904214 0 0 0 -0.6080663,0 L 2.542864,7.2676896 A 0.42942521,0.42904214 0 0 0 2.4174719,7.5714517 v 6.0065893 a 0.42942521,0.42904214 0 0 0 0.4294252,0.429043 h 3.435402 a 0.42942521,0.42904214 0 0 0 0.429425,-0.429043 z"
     id="path2473"
     style="stroke:#ffffff;stroke-width:3.99835;stroke-linecap:round;stroke-linejoin:miter;stroke-dasharray:none;stroke-opacity:1;paint-order:stroke fill markers" />
</svg>
