<?xml version="1.0" encoding="UTF-8" standalone="no"?>
<svg
   enable-background="new 0 0 500 500"
   height="16"
   id="Layer_1"
   version="1.1"
   viewBox="0 0 16 16"
   width="16"
   xml:space="preserve"
   sodipodi:docname="111039_key_icon.svg"
   inkscape:export-filename="../Syncthing/Magpie/static/images/key.svg"
   inkscape:export-xdpi="96"
   inkscape:export-ydpi="96"
   xmlns:inkscape="http://www.inkscape.org/namespaces/inkscape"
   xmlns:sodipodi="http://sodipodi.sourceforge.net/DTD/sodipodi-0.dtd"
   xmlns="http://www.w3.org/2000/svg"
   xmlns:svg="http://www.w3.org/2000/svg"><defs
     id="defs7" /><sodipodi:namedview
     id="namedview5"
     pagecolor="#ffffff"
     bordercolor="#000000"
     borderopacity="0.25"
     inkscape:showpageshadow="2"
     inkscape:pageopacity="0.0"
     inkscape:pagecheckerboard="0"
     inkscape:deskcolor="#d1d1d1"
     showgrid="false" /><path
     clip-rule="evenodd"
     d="m 7.0188027,14.02057 c -3.668e-4,0.542232 0.4398266,0.983242 0.9812301,0.983049 0.5413421,1.32e-4 0.981483,-0.440817 0.9794996,-0.981325 l 0.00175,-0.390036 1.6310516,-1.92e-4 c 0.279156,2.19e-4 0.502696,-0.223744 0.502678,-0.503609 v -2.43549 c 2.45e-4,-0.279638 -0.223366,-0.503672 -0.502712,-0.503654 l -1.6308603,2.6e-5 -0.00175,-2.9126189 C 9.4511555,7.1262036 9.8961555,6.8620686 10.269941,6.4875806 c 1.253746,-1.2560614 1.253894,-3.2921757 2.7e-5,-4.5483595 -1.2537019,-1.25602636 -3.2862301,-1.25606137 -4.5399746,0 -1.2538147,1.25614 -1.2536748,3.2923507 2.62e-5,4.548377 0.373786,0.3744881 0.8188637,0.638588 1.2903123,0.789122 z M 7.1269245,5.0881371 C 6.6450081,4.605318 6.6450081,3.8215011 7.1268982,3.3387257 7.608841,2.8558979 8.391137,2.8559679 8.8730535,3.3387783 c 0.4819164,0.4828192 0.4819337,1.2665047 0,1.7493327 -0.481864,0.4827576 -1.2642125,0.4828102 -1.7461116,1.74e-5 z"
     fill="#010101"
     fill-rule="evenodd"
     id="path2"
     style="fill:#ffffff;fill-opacity:1;stroke:#000000;stroke-width:1.99991;stroke-dasharray:none;stroke-opacity:1;paint-order:stroke fill markers" /></svg>
