<?xml version="1.0" encoding="UTF-8" standalone="no"?>
<svg
   id="svg"
   version="1.1"
   width="400"
   height="634.4827586206897"
   viewBox="0, 0, 400,634.4827586206897"
   sodipodi:docname="left-click.svg"
   inkscape:version="1.2.2 (b0a8486541, 2022-12-01)"
   xmlns:inkscape="http://www.inkscape.org/namespaces/inkscape"
   xmlns:sodipodi="http://sodipodi.sourceforge.net/DTD/sodipodi-0.dtd"
   xmlns="http://www.w3.org/2000/svg"
   xmlns:svg="http://www.w3.org/2000/svg">
  <defs
     id="defs823" />
  <sodipodi:namedview
     id="namedview821"
     pagecolor="#ffffff"
     bordercolor="#000000"
     borderopacity="0.25"
     inkscape:showpageshadow="2"
     inkscape:pageopacity="0.0"
     inkscape:pagecheckerboard="0"
     inkscape:deskcolor="#d1d1d1"
     showgrid="false"
     inkscape:zoom="1.6186412"
     inkscape:cx="198.62338"
     inkscape:cy="305.50315"
     inkscape:window-width="3840"
     inkscape:window-height="2091"
     inkscape:window-x="2560"
     inkscape:window-y="0"
     inkscape:window-maximized="1"
     inkscape:current-layer="svgg" />
  <g
     id="svgg">
    <path
       id="path0"
       d="M152.400 5.599 C 137.374 6.580,113.538 11.812,102.028 16.656 C 58.400 35.013,25.844 70.379,14.258 112.000 C 13.247 115.630,11.890 120.166,11.242 122.080 C 9.988 125.786,9.314 129.280,7.941 139.200 C 6.954 146.334,6.276 230.289,7.153 236.805 C 8.155 244.249,11.841 248.091,19.046 249.200 C 24.611 250.057,177.776 249.541,180.389 248.657 C 190.465 245.247,190.887 237.504,181.375 230.573 C 171.219 223.171,166.052 214.915,164.606 203.777 C 163.613 196.130,163.897 83.144,164.923 77.634 C 166.609 68.583,172.055 60.847,182.200 53.094 C 189.419 47.578,189.400 47.635,189.400 30.800 C 189.400 14.091,188.888 11.987,183.956 8.414 C 179.865 5.451,169.221 4.501,152.400 5.599 "
       stroke="none"
       fill="#dc3729"
       fill-rule="evenodd"
       style="fill:#ff0000;fill-opacity:1" />
    <path
       id="path2"
       d="M224.789 6.123 C 215.858 8.128,213.622 13.199,213.608 31.480 C 213.596 47.180,213.672 47.360,224.048 55.824 C 231.612 61.994,235.929 68.289,238.038 76.222 C 240.284 84.672,240.263 199.821,238.014 208.150 C 235.685 216.771,231.030 223.420,222.963 229.647 C 216.586 234.570,215.200 236.390,215.200 239.842 C 215.200 244.539,219.439 248.260,225.843 249.186 C 229.597 249.728,378.138 249.738,382.869 249.196 C 389.893 248.391,394.466 244.648,395.334 238.990 C 395.769 236.151,395.661 148.173,395.215 142.857 C 394.434 133.538,391.498 119.011,389.240 113.296 C 388.783 112.139,387.493 108.539,386.375 105.296 C 371.151 61.168,332.779 25.125,287.530 12.450 C 280.448 10.466,272.920 8.791,263.600 7.125 C 255.533 5.683,229.719 5.017,224.789 6.123 M196.000 57.454 C 184.220 59.710,175.892 67.363,173.331 78.285 C 172.192 83.140,172.199 201.878,173.338 206.200 C 175.778 215.459,182.200 222.517,190.844 225.442 C 209.709 231.824,226.554 222.268,230.050 203.200 C 230.836 198.915,230.866 86.143,230.083 81.600 C 228.075 69.952,220.718 60.931,211.000 58.201 C 208.638 57.538,198.261 57.020,196.000 57.454 M27.766 265.268 C 16.725 266.001,9.722 271.354,7.832 280.507 C 6.891 285.062,6.873 452.044,7.812 463.276 C 8.822 475.345,9.725 480.892,11.869 488.200 C 12.644 490.840,14.063 496.103,15.023 499.895 C 16.885 507.252,17.988 510.235,23.274 522.200 C 44.582 570.438,90.081 609.319,139.618 621.621 C 164.357 627.764,169.368 628.385,196.600 628.674 C 228.024 629.008,239.023 627.878,262.000 621.957 C 311.517 609.198,353.425 575.179,376.500 529.013 C 381.433 519.143,382.887 515.731,384.800 509.535 C 385.707 506.601,387.340 501.680,388.430 498.600 C 391.099 491.062,392.380 485.190,394.669 470.000 C 395.528 464.298,396.022 285.254,395.192 280.422 C 393.918 273.002,388.328 267.678,379.841 265.800 C 376.850 265.138,37.445 264.625,27.766 265.268 "
       stroke="none"
       fill="#434343"
       fill-rule="evenodd"
       style="fill:#ffffff;fill-opacity:1;stroke:#000000;stroke-opacity:1;stroke-width:0;stroke-dasharray:none;stroke-linecap:round;stroke-linejoin:bevel;paint-order:markers fill stroke" />
  </g>
</svg>
