<?xml version="1.0" encoding="UTF-8" standalone="no"?>
<svg
   width="16"
   height="16"
   fill="currentColor"
   class="bi bi-lightbulb-fill"
   viewBox="0 0 16 16"
   version="1.1"
   id="svg1"
   sodipodi:docname="lightbulb-fill.svg"
   inkscape:version="1.4 (e7c3feb100, 2024-10-09)"
   xmlns:inkscape="http://www.inkscape.org/namespaces/inkscape"
   xmlns:sodipodi="http://sodipodi.sourceforge.net/DTD/sodipodi-0.dtd"
   xmlns="http://www.w3.org/2000/svg"
   xmlns:svg="http://www.w3.org/2000/svg">
  <defs
     id="defs1" />
  <sodipodi:namedview
     id="namedview1"
     pagecolor="#ffffff"
     bordercolor="#000000"
     borderopacity="0.25"
     inkscape:showpageshadow="2"
     inkscape:pageopacity="0.0"
     inkscape:pagecheckerboard="0"
     inkscape:deskcolor="#d1d1d1"
     inkscape:zoom="61.805552"
     inkscape:cx="1.2701124"
     inkscape:cy="9.4813489"
     inkscape:window-width="3840"
     inkscape:window-height="2091"
     inkscape:window-x="2560"
     inkscape:window-y="0"
     inkscape:window-maximized="1"
     inkscape:current-layer="svg1" />
  <path
     d="M 3.4016983,6.1168866 C 3.4015949,2.826279 6.7590738,0.60226284 9.7889795,1.8858183 12.818886,3.1693737 13.557041,7.1284187 11.193185,9.4175849 11.037723,9.5676865 10.918254,9.7239136 10.846266,9.8916296 L 10.26271,11.246372 c -0.06052,0.140332 -0.198688,0.23124 -0.3515128,0.231278 H 6.0820799 C 5.9289763,11.477918 5.7904301,11.386959 5.7298011,11.246372 L 5.1470096,9.8908636 C 5.0629542,9.7122196 4.9451534,9.551511 4.8000916,9.4175849 3.9048321,8.553068 3.3999735,7.3614251 3.4016983,6.1168866 m 2.2974699,6.5094984 c -3e-7,-0.211477 0.1714352,-0.382912 0.3829117,-0.382912 h 3.8291173 c 0.5105498,0 0.5105498,0.765824 0,0.765824 L 9.7396521,14.048019 C 9.6100263,14.307427 9.3449972,14.471365 9.055006,14.47152 H 6.9382703 C 6.6482791,14.471365 6.38325,14.307427 6.2536244,14.048019 L 6.0820799,13.009297 c -0.2114765,0 -0.382912,-0.171435 -0.3829117,-0.382912"
     id="path1"
     style="fill:#ffffff;fill-opacity:1;stroke:#000000;stroke-width:3.05696;stroke-dasharray:none;stroke-opacity:1;paint-order:markers stroke fill"
     sodipodi:nodetypes="csccccccccccssccccccc" />
</svg>
