<?xml version="1.0" encoding="UTF-8" standalone="no"?>
<svg
   width="16"
   height="16"
   fill="currentColor"
   class="bi bi-question-circle"
   viewBox="0 0 16 16"
   version="1.1"
   id="svg6"
   xmlns="http://www.w3.org/2000/svg"
   xmlns:svg="http://www.w3.org/2000/svg">
  <defs
     id="defs10" />
  <path
     d="M 8,15 A 7,7 0 1 1 8,1 7,7 0 0 1 8,15 Z m 0,1 A 8,8 0 1 0 8,0 8,8 0 0 0 8,16 Z"
     id="path2"
     style="fill:#ffffff;fill-opacity:1" />
  <path
     d="m 5.255,5.786 a 0.237,0.237 0 0 0 0.241,0.247 h 0.825 c 0.138,0 0.248,-0.113 0.266,-0.25 0.09,-0.656 0.54,-1.134 1.342,-1.134 0.686,0 1.314,0.343 1.314,1.168 0,0.635 -0.374,0.927 -0.965,1.371 C 7.605,7.677 7.072,8.248 7.11,9.175 l 0.003,0.217 a 0.25,0.25 0 0 0 0.25,0.246 h 0.811 a 0.25,0.25 0 0 0 0.25,-0.25 V 9.283 C 8.424,8.565 8.697,8.356 9.434,7.797 10.043,7.334 10.678,6.82 10.678,5.741 10.678,4.23 9.402,3.5 8.005,3.5 6.738,3.5 5.35,4.09 5.255,5.786 Z m 1.557,5.763 c 0,0.533 0.425,0.927 1.01,0.927 0.609,0 1.028,-0.394 1.028,-0.927 0,-0.552 -0.42,-0.94 -1.029,-0.94 -0.584,0 -1.009,0.388 -1.009,0.94 z"
     id="path4"
     style="fill:#ffffff;fill-opacity:1" />
</svg>
