<?xml version="1.0" encoding="UTF-8" standalone="no"?>
<svg
   version="1.0"
   width="759.11096pt"
   height="654.2085pt"
   viewBox="0 0 759.11097 654.2085"
   preserveAspectRatio="xMidYMid"
   id="svg4"
   sodipodi:docname="new-owl.svg"
   inkscape:version="1.3.2 (091e20ef0f, 2023-11-25)"
   xmlns:inkscape="http://www.inkscape.org/namespaces/inkscape"
   xmlns:sodipodi="http://sodipodi.sourceforge.net/DTD/sodipodi-0.dtd"
   xmlns="http://www.w3.org/2000/svg"
   xmlns:svg="http://www.w3.org/2000/svg">
  <defs
     id="defs4" />
  <sodipodi:namedview
     id="namedview4"
     pagecolor="#ffffff"
     bordercolor="#000000"
     borderopacity="0.25"
     inkscape:showpageshadow="2"
     inkscape:pageopacity="0.0"
     inkscape:pagecheckerboard="0"
     inkscape:deskcolor="#d1d1d1"
     inkscape:document-units="pt"
     inkscape:zoom="0.99383858"
     inkscape:cx="403.98915"
     inkscape:cy="724.46372"
     inkscape:window-width="3840"
     inkscape:window-height="2091"
     inkscape:window-x="2560"
     inkscape:window-y="0"
     inkscape:window-maximized="1"
     inkscape:current-layer="svg4" />
  <path
     style="fill:#ffffff;fill-opacity:1;stroke:none;stroke-width:35.6506;stroke-linecap:round;stroke-linejoin:round;stroke-dasharray:none;stroke-opacity:1;paint-order:stroke fill markers"
     id="path7"
     sodipodi:type="arc"
     sodipodi:cx="239.26126"
     sodipodi:cy="349.47266"
     sodipodi:rx="110.16442"
     sodipodi:ry="127.00613"
     sodipodi:start="6.0457271"
     sodipodi:end="6.0241321"
     sodipodi:open="true"
     sodipodi:arc-type="arc"
     d="m 346.33436,319.59663 a 110.16442,127.00613 0 0 1 -80.58112,153.15515 110.16442,127.00613 0 0 1 -133.27903,-92.072 110.16442,127.00613 0 0 1 79.14204,-154.14929 110.16442,127.00613 0 0 1 134.13357,90.40758" />
  <path
     style="fill:#ffffff;fill-opacity:1;stroke:none;stroke-width:36.5797;stroke-linecap:round;stroke-linejoin:round;stroke-dasharray:none;stroke-opacity:1;paint-order:stroke fill markers"
     id="path8"
     sodipodi:type="arc"
     sodipodi:cx="519.51636"
     sodipodi:cy="345.68933"
     sodipodi:rx="112.51418"
     sodipodi:ry="130.81453"
     sodipodi:start="6.0457271"
     sodipodi:end="6.0241321"
     sodipodi:open="true"
     sodipodi:arc-type="arc"
     d="M 628.87328,314.91745 A 112.51418,130.81453 0 0 1 546.5734,472.6651 112.51418,130.81453 0 0 1 410.45158,377.83223 a 112.51418,130.81453 0 0 1 80.83011,-158.7716 112.51418,130.81453 0 0 1 136.99458,93.11854" />
  <path
     d="m 45.258178,48.908489 c 3.6,41.8 19.4,78.700001 46.6,109.300001 16.000002,18.1 32.999992,30.6 68.699992,50.7 65.9,37.2 80.3,46 101.5,62.2 12.7,9.6 32.3,29.2 39.7,39.7 21.6,30.4 29.8,56 30.1,94 l 0.1,14.1 -4.4,5.7 c -13.2,17.2 -34.4,31.2 -56.2,37.2 -11.6,3.2 -31.8,4.3 -43.5,2.4 -48.1,-7.7 -88.3,-48.3 -98.4,-99.5 -2.1,-10.5 -1.8,-40.6 0.4,-52 5.4,-26.6 19.2,-55.4 36.7,-76.4 6,-7.3 5.2,-7.3 -5.2,-0.2 -32.4,21.9 -53.89999,54.3 -62.499992,94.1 -2.8,13.4 -2.6,44 0.5,57.9 6.700002,29.8 18.999992,52.1 40.599992,73.7 18,17.9 34.3,28 57.8,35.9 15.5,5.1 26.8,6.9 45.3,6.9 24.9,0.1 44.7,-4.5 66.5,-15.4 8,-4 10.5,-4.9 11.1,-3.8 0.5,0.7 13.8,28.9 29.6,62.5 15.8,33.7 29,61.3 29.3,61.3 0.3,0 13.5,-27.6 29.3,-61.3 15.8,-33.7 29.2,-61.8 29.6,-62.6 0.6,-1 3.2,0 11.1,3.9 21.8,10.9 41.6,15.5 66.5,15.4 18.6,0 29.8,-1.7 45.5,-7 23.3,-7.8 39.6,-17.9 57.6,-35.8 21.5,-21.5 33.9,-44 40.6,-73.7 2,-9 2.3,-13.1 2.3,-29.9 0,-21.7 -1.1,-28.8 -7,-46.6 -10.3,-30.9 -30.2,-57.2 -57,-75.4 -11.5,-7.7 -12.2,-7.8 -6,-0.4 17.2,20.2 31,48.4 36.7,74.7 1.8,8.3 2.2,13.6 2.2,28.7 0.1,25.8 -3,39.7 -13.6,60.2 -17.9,34.9 -49.9,59 -86.1,64.8 -11.8,1.9 -31.9,0.8 -43.6,-2.5 -21.7,-5.9 -43.2,-20.1 -56,-36.9 -3.3,-4.3 -3.9,-6.1 -4.5,-11.8 -0.8,-8.8 1,-31.8 3.5,-44.3 7.5,-36.7 30.8,-70.5 68.9,-99.5 17.8,-13.6 35,-24.1 81.2,-50.1 54.7,-30.8 68.5,-40.5 87,-61.4 20.5,-23.2 35.4,-52.4 42.2,-82.600001 2.3,-10.4 4.8,-29.8 4,-30.8 -0.2,-0.2 -1.4,2 -2.6,5 -4.1,10.3 -13,26.4 -20.5,37.4 -24.1,35.200001 -52.4,57.500001 -95,74.900001 -6.1,2.5 -27.9,10.1 -48.4,16.9 -20.6,6.9 -43.2,15 -50.4,18.1 -50.9,22.1 -93.1,59.3 -113.1,99.8 -2.1,4.3 -4.1,7.8 -4.4,7.8 -0.4,0 -2,-2.8 -3.6,-6.2 -13.1,-27.8 -41.3,-58.4 -72.8,-79.2 -26.4,-17.4 -42.5,-24.3 -103.7,-44.5 -30,-9.9 -43.6,-15.2 -59.8,-23.7 -22.6,-11.7 -40.899992,-26.1 -56.499992,-44.4 -14.3,-16.800001 -28.5,-39.400001 -34.6,-55.000001 -2.9,-7.4 -3.9,-8.1 -3.3,-2.3 z"
     id="path1"
     style="fill:#000000;stroke:#ffffff;stroke-width:90;stroke-dasharray:none;stroke-opacity:1;paint-order:stroke fill markers" />
  <path
     d="m 210.85817,260.20849 c -16.6,7.4 -33.3,24.2 -41.8,42.1 -10.3,21.8 -10.7,49.5 -1,71.3 15.3,34.6 51.7,55.8 88.5,51.6 20.1,-2.3 37.2,-10.4 51.7,-24.4 l 8.6,-8.4 -0.7,-5.8 c -1.1,-9.6 -3.6,-21.3 -6.3,-29.4 -2.6,-7.6 -9.9,-22.9 -12.7,-26.5 -1.5,-1.9 -1.5,-1.9 -1.6,1.1 -0.1,10.4 -9.9,22.9 -20.5,26 -19.5,5.6 -37.9,-8 -38,-28.1 0,-11.7 5.8,-20.9 16.8,-26.7 3.3,-1.8 5.9,-2.2 12.1,-2.3 h 7.8 l -6.3,-5.8 c -12,-11 -48.2,-36.8 -51.3,-36.6 -0.6,0 -3,0.9 -5.3,1.9 z"
     id="path3"
     style="fill:#000000;stroke:none;stroke-width:0.1" />
  <path
     d="m 531.05817,265.30849 c -13.6,8.9 -31,21.9 -39.4,29.6 l -6.3,5.8 h 7.8 c 6.2,0.1 8.8,0.5 12.1,2.3 11,5.8 16.8,15 16.8,26.7 -0.1,20.1 -18.5,33.7 -38,28.1 -10.6,-3.1 -20.4,-15.6 -20.5,-26 -0.1,-3 -0.1,-3 -1.6,-1.1 -3,3.8 -10.2,19 -12.8,27 -2.9,9.1 -5.1,19.1 -6.1,28.2 l -0.7,6.2 5.3,5.7 c 33.8,35.8 89,37.3 123.9,3.4 17.9,-17.4 26.4,-37.8 26.3,-63 -0.1,-25.2 -9,-45.2 -28.1,-63.1 -7.5,-7.1 -19.9,-15.1 -25.2,-16.4 -2,-0.5 -4.8,0.9 -13.5,6.6 z"
     id="path4"
     style="fill:#000000;stroke:none;stroke-width:0.1" />
  <path
     style="fill:#000000;fill-opacity:1;stroke:none;stroke-width:30;stroke-linecap:round;stroke-linejoin:round;stroke-dasharray:none;stroke-opacity:1;paint-order:stroke fill markers"
     d="m 273.73567,300.69165 10.47225,12.16348 6.91098,8.82218 5.68407,8.59788 0.50146,33.06426 -31.52029,17.2755 -48.19203,-28.26917 2.36609,-44.59564 27.69782,-16.94264 z"
     id="path9" />
  <path
     style="fill:#000000;fill-opacity:1;stroke:none;stroke-width:30;stroke-linecap:round;stroke-linejoin:round;stroke-dasharray:none;stroke-opacity:1;paint-order:stroke fill markers"
     d="m 485.38908,300.66923 -5.98896,6.99455 -6.54632,7.63643 -5.955,7.82855 -5.5266,8.30699 c 0,0 1.65546,41.48847 1.39285,41.90886 -0.2626,0.42039 62.50194,0.5903 62.50194,0.5903 l 20.75375,-47.70534 -27.80415,-34.42932 z"
     id="path10" />
  <path
     d="m 299.65817,198.60849 c 0.2,0.2 5.8,4 12.4,8.4 6.6,4.4 15.7,11.1 20.3,14.8 15.6,12.5 34.6,32.8 43.6,46.6 1.7,2.6 3.3,4.7 3.6,4.7 0.3,0 3.1,-3.7 6.2,-8.2 15.4,-21.9 40,-44.6 66.2,-61.2 7.8,-5 7.9,-5 4.5,-5.3 -1.8,-0.2 -13.5,0.4 -25.9,1.4 -28,2.1 -62.5,2.1 -92,0 -21.1,-1.5 -39.9,-2.1 -38.9,-1.2 z"
     id="path2"
     style="fill:#000000;stroke:#ffffff;stroke-width:30;stroke-dasharray:none;stroke-opacity:1;paint-order:stroke fill markers" />
</svg>
