<?xml version="1.0" encoding="UTF-8" standalone="no"?>
<svg
   version="1.1"
   width="14"
   height="14"
   id="svg17"
   sodipodi:docname="new-owl-4.svg"
   inkscape:version="1.3.2 (091e20ef0f, 2023-11-25)"
   xmlns:inkscape="http://www.inkscape.org/namespaces/inkscape"
   xmlns:sodipodi="http://sodipodi.sourceforge.net/DTD/sodipodi-0.dtd"
   xmlns="http://www.w3.org/2000/svg"
   xmlns:svg="http://www.w3.org/2000/svg">
  <defs
     id="defs17" />
  <sodipodi:namedview
     id="namedview17"
     pagecolor="#ffffff"
     bordercolor="#000000"
     borderopacity="0.25"
     inkscape:showpageshadow="2"
     inkscape:pageopacity="0.0"
     inkscape:pagecheckerboard="0"
     inkscape:deskcolor="#d1d1d1"
     inkscape:zoom="47.325647"
     inkscape:cx="7.9343871"
     inkscape:cy="6.1277557"
     inkscape:window-width="3840"
     inkscape:window-height="2091"
     inkscape:window-x="2560"
     inkscape:window-y="0"
     inkscape:window-maximized="1"
     inkscape:current-layer="svg17" />
  <path
     d="M 2,1 C 2.99,1 3.98,1 5,1 5,1.33 5,1.66 5,2 6.32,2 7.64,2 9,2 9,1.67 9,1.34 9,1 c 0.99,0 1.98,0 3,0 0,1.32 0,2.64 0,4 0.33,0 0.66,0 1,0 0,1.65 0,3.3 0,5 -0.66,0 -1.32,0 -2,0 0,0.33 0,0.66 0,1 -0.66,0 -1.32,0 -2,0 0,0.33 0,0.66 0,1 -0.33,0 -0.66,0 -1,0 0,0.33 0,0.66 0,1 C 7.34,13 6.68,13 6,13 6,12.67 6,12.34 6,12 5.67,12 5.34,12 5,12 5,11.67 5,11.34 5,11 4.34,11 3.68,11 3,11 3,10.67 3,10.34 3,10 2.34,10 1.68,10 1,10 1,8.35 1,6.7 1,5 1.33,5 1.66,5 2,5 2,3.68 2,2.36 2,1 Z"
     fill="#F6F8F5"
     id="path1"
     style="fill:#ffffff;fill-opacity:1;stroke-width:0.125" />
  <path
     id="path5"
     d="M 2,1 V 5 H 3 V 4 H 4 V 3 H 3 V 2 H 5 V 1 Z M 5,2 V 3 H 9 V 2 Z m 4,0 h 2 v 1 h -1 v 1 h 1 v 1 h 1 V 1 H 9 Z m 3,3 v 4 h -1 v 1 h 2 V 5 Z m -1,5 H 9 V 9 H 8 v 3 h 1 v -1 h 2 z M 8,12 H 6 v 1 H 8 Z M 6,12 V 9 H 5 v 1 H 3 v 1 h 2 v 1 z M 3,10 V 9 H 2 V 5 H 1 v 5 z M 6,9 H 8 V 8 h 2 V 6 H 9 V 5 H 8 V 6 H 6 V 5 H 5 V 6 H 4 V 8 H 6 Z M 5,5 V 4 H 4 v 1 z m 4,0 h 1 V 4 H 9 Z"
     style="stroke:#ffffff;stroke-width:1;stroke-linejoin:round;stroke-opacity:1;paint-order:stroke fill markers;stroke-dasharray:none" />
  <path
     d="M 6,7 C 6.66,7 7.32,7 8,7 8,7.33 8,7.66 8,8 7.34,8 6.68,8 6,8 6,7.67 6,7.34 6,7 Z"
     fill="#F6F8F5"
     id="path15"
     style="fill:#ffffff;fill-opacity:1;stroke-width:0.125" />
</svg>
