<?xml version="1.0" encoding="UTF-8" standalone="no"?>
<!-- Created with Inkscape (http://www.inkscape.org/) -->

<svg
   width="16"
   height="16"
   viewBox="0 0 4.2333329 4.2333329"
   version="1.1"
   id="svg5"
   sodipodi:docname="entrance.svg"
   inkscape:export-filename="partial-entrance.svg"
   inkscape:export-xdpi="96"
   inkscape:export-ydpi="96"
   xmlns:inkscape="http://www.inkscape.org/namespaces/inkscape"
   xmlns:sodipodi="http://sodipodi.sourceforge.net/DTD/sodipodi-0.dtd"
   xmlns="http://www.w3.org/2000/svg"
   xmlns:svg="http://www.w3.org/2000/svg">
  <sodipodi:namedview
     id="namedview6"
     pagecolor="#ffffff"
     bordercolor="#000000"
     borderopacity="0.25"
     inkscape:showpageshadow="2"
     inkscape:pageopacity="0.0"
     inkscape:pagecheckerboard="0"
     inkscape:deskcolor="#d1d1d1"
     showgrid="false" />
  <defs
     id="defs2" />
  <g
     id="layer1"
     style="stroke-width:0.529167;stroke-dasharray:none"
     inkscape:export-filename="partial-entrance.svg"
     inkscape:export-xdpi="121.78243"
     inkscape:export-ydpi="121.78243">
    <path
       id="path894"
       style="fill:#000000;fill-opacity:1;stroke:#ffffff;stroke-width:0.529167;stroke-linecap:round;stroke-dasharray:none;stroke-opacity:1"
       d="M 2.0847364,0.26522593 A 1.4036603,1.4036162 0 0 0 1.7748765,0.30978541 1.4036603,1.4036162 0 0 0 0.72395855,1.6877011 c -4.868e-5,2.186e-4 4.483e-5,4.656e-4 0,6.857e-4 -4.8845e-4,0.0024 -6.8559e-4,0.00498 -6.8559e-4,0.00753 v 2.2355144 c 0,0.020377 0.0166406,0.037019 0.0370184,0.037019 H 3.4948717 c 0.020378,0 0.036333,-0.01664 0.036333,-0.037019 V 1.6959276 c 0,-0.00255 -1.971e-4,-0.00515 -6.856e-4,-0.00753 A 1.4036603,1.4036162 0 0 0 3.4914444,1.3380781 l -0.00753,-0.029478 A 1.4036603,1.4036162 0 0 0 2.0847364,0.26522593 Z" />
  </g>
  <text
     xml:space="preserve"
     style="font-style:normal;font-variant:normal;font-weight:bold;font-stretch:normal;font-size:4.23333px;font-family:sans-serif;-inkscape-font-specification:'sans-serif Bold';fill:#ff0000;fill-opacity:1;stroke:#000000;stroke-width:0.529167;stroke-linecap:square;stroke-linejoin:bevel;stroke-miterlimit:4;stroke-dasharray:none;stroke-opacity:1;paint-order:markers stroke fill"
     x="-0.064078137"
     y="3.3506975"
     id="text289"><tspan
       sodipodi:role="line"
       id="tspan287"
       style="font-style:normal;font-variant:normal;font-weight:bold;font-stretch:normal;font-size:4.23333px;font-family:sans-serif;-inkscape-font-specification:'sans-serif Bold';fill:#ff0000;fill-opacity:1;stroke:#000000;stroke-width:0.529167;stroke-linecap:square;stroke-linejoin:bevel;stroke-miterlimit:4;stroke-dasharray:none;stroke-opacity:1;paint-order:markers stroke fill"
       x="-0.064078137"
       y="3.3506975">!</tspan></text>
</svg>
