<?xml version="1.0" encoding="UTF-8" standalone="no"?>
<!-- Created with Inkscape (http://www.inkscape.org/) -->

<svg
   width="16"
   height="16"
   viewBox="0 0 4.2333329 4.2333329"
   version="1.1"
   id="svg5"
   sodipodi:docname="unmapped-entrance.svg"
   inkscape:export-filename="unmapped-entrance.svg"
   inkscape:export-xdpi="96"
   inkscape:export-ydpi="96"
   inkscape:version="1.2.1 (9c6d41e410, 2022-07-14)"
   xmlns:inkscape="http://www.inkscape.org/namespaces/inkscape"
   xmlns:sodipodi="http://sodipodi.sourceforge.net/DTD/sodipodi-0.dtd"
   xmlns="http://www.w3.org/2000/svg"
   xmlns:svg="http://www.w3.org/2000/svg">
  <sodipodi:namedview
     id="namedview137"
     pagecolor="#ffffff"
     bordercolor="#000000"
     borderopacity="0.25"
     inkscape:showpageshadow="2"
     inkscape:pageopacity="0.0"
     inkscape:pagecheckerboard="0"
     inkscape:deskcolor="#d1d1d1"
     showgrid="false"
     inkscape:zoom="64.1875"
     inkscape:cx="8"
     inkscape:cy="8"
     inkscape:window-width="3840"
     inkscape:window-height="2091"
     inkscape:window-x="2560"
     inkscape:window-y="0"
     inkscape:window-maximized="1"
     inkscape:current-layer="svg5" />
  <defs
     id="defs2" />
  <path
     d="m 1.3992998,1.532628 a 0.06270624,0.0628739 0 0 0 0.063765,0.065527 h 0.2182808 c 0.036513,0 0.065617,-0.029978 0.070379,-0.066323 0.023813,-0.1740307 0.142875,-0.3008396 0.3550708,-0.3008396 0.1815041,0 0.3476624,0.090995 0.3476624,0.3098596 0,0.1684596 -0.098954,0.2459244 -0.2553229,0.3637135 C 2.0210706,2.0342928 1.8800477,2.1857738 1.8901018,2.4316983 l 7.938e-4,0.057568 a 0.06614583,0.06632269 0 0 0 0.066146,0.065261 h 0.2145771 a 0.06614583,0.06632269 0 0 0 0.066146,-0.066322 v -0.027855 c 0,-0.1904787 0.072231,-0.2459245 0.2672291,-0.394222 0.1611313,-0.1228296 0.3291417,-0.2591891 0.3291417,-0.5454378 0,-0.4008542 -0.3376083,-0.59451658 -0.7072312,-0.59451658 -0.3352271,0 -0.7024687,0.15652158 -0.7276045,0.60645408 z M 1.811256,3.0614987 c 0,0.1413999 0.1124479,0.2459245 0.2672292,0.2459245 0.1611312,0 0.2719916,-0.1045246 0.2719916,-0.2459245 0,-0.1464405 -0.111125,-0.2493734 -0.2722562,-0.2493734 -0.1545167,0 -0.2669646,0.1029329 -0.2669646,0.2493734 z"
     id="path2"
     style="fill:#ffffff;fill-opacity:1;stroke:#000000;stroke-width:0.264848;stroke-linecap:butt;stroke-linejoin:miter;stroke-dasharray:none;stroke-opacity:1;paint-order:stroke markers fill" />
</svg>
