<?xml version="1.0" encoding="UTF-8" standalone="no"?>
<svg
   width="1364"
   height="1406"
   viewBox="0 0 1364 1406"
   version="1.1"
   id="svg2"
   sodipodi:docname="wallet.svg"
   inkscape:version="1.3.2 (091e20ef0f, 2023-11-25)"
   xmlns:inkscape="http://www.inkscape.org/namespaces/inkscape"
   xmlns:sodipodi="http://sodipodi.sourceforge.net/DTD/sodipodi-0.dtd"
   xmlns="http://www.w3.org/2000/svg"
   xmlns:svg="http://www.w3.org/2000/svg">
  <defs
     id="defs2" />
  <sodipodi:namedview
     id="namedview2"
     pagecolor="#ffffff"
     bordercolor="#000000"
     borderopacity="0.25"
     inkscape:showpageshadow="2"
     inkscape:pageopacity="0.0"
     inkscape:pagecheckerboard="0"
     inkscape:deskcolor="#d1d1d1"
     inkscape:zoom="0.66642959"
     inkscape:cx="1099.8911"
     inkscape:cy="687.2444"
     inkscape:window-width="3840"
     inkscape:window-height="2091"
     inkscape:window-x="2560"
     inkscape:window-y="0"
     inkscape:window-maximized="1"
     inkscape:current-layer="svg2" />
  <path
     d="m 658.99591,100.30281 c -53.513,5.009 -94.621,17.977 -197.5,62.303 -49.259,21.223 -66.584,28.246 -86.5,35.065 -8.525,2.919 -15.897,5.653 -16.381,6.077 -1.377,1.202 14.84,22.09 37.86,48.765 11.562,13.397 29.034,33.647 38.828,45 49.188,57.019 74.311,98.214 84.387,138.375 3.256,12.977 3.695,29.796 1.037,39.767 -4.211,15.794 -15.855,33.546 -31.495,48.015 -9.091,8.411 -50.679,39.978 -77.736,59.006 -71.735,50.448 -111.624,85.548 -146.58,128.979 -29.821,37.052 -50.596,81.471 -58.907,125.95 -2.241,11.99 -6.407,48.009 -8.218,71.05 -1.834,23.33 -1.548,82.86 0.493,102.50899 8.938,86.047 32.424,135.806 91.362,193.564 37.412,36.664 76.472,61.392 121.988,77.226 27.822,9.679 46.308,13.12 92.311,17.184 95.814,8.463 200.725,9.845 301.551,3.97 91.618,-5.338 125.294,-11.231 166.486,-29.133 40.79799,-17.731 72.13499,-39.238 104.53599,-71.743 27.802,-27.892 47.781,-54.992 62.724,-85.077 19.395,-39.051 31.281,-119.23599 27.849,-187.87199 -1.967,-39.351 -8.163,-88.396 -14.11,-111.686 -13.026,-51.019 -43.751,-100.205 -92.103,-147.442 -28.775,-28.113 -55.401,-49.547 -106.62499,-85.837 -10.584,-7.498 -30.833,-22.295 -44.998,-32.882 -42.597,-31.837 -57.004,-47.767 -65.37,-72.281 -2.082,-6.101 -2.384,-8.799 -2.351,-21 0.043,-16.049 2.099,-25.774 9.478,-44.831 15.275,-39.445 37.867,-71.335 103.841,-146.579 25.92802,-29.57 51.93299,-61.634 50.85899,-62.708 -0.179,-0.178 -5.7,-2.174 -12.26997,-4.435 -19.82602,-6.823 -51.47802,-19.638 -99.94602,-40.465 -96.725,-41.562 -131.997,-52.645 -184.5,-57.971 -12.826,-1.302002 -40.26,-1.775002 -50,-0.863 m 0.5,657.542 c -5.694,2.99 -23.199,15.669 -35.5,25.712 -62.084,50.685 -95.957,102.97 -104.45,161.226 -2.04,13.992 -2.087,53.37 -0.08,67.37199 5.75,40.115 24.484,76.569 61.902,120.449 8.415,9.869 92.306,95.051 93.61,95.051 0.328,0 5.113,-5.062 10.633,-11.25 5.52,-6.187 18.79,-20.475 29.487,-31.75 44.638,-47.047 63.219,-69.631 79.508,-96.641 24.375,-40.415 32.535,-71.901 31.062,-119.85899 -0.824,-26.856 -4.589,-46.128 -13.205,-67.601 -9.067,-22.596 -22.781,-45.137 -39.793,-65.407 -10.543,-12.561 -32.54,-33.866 -46.506,-45.043 -11.699,-9.361 -43.189,-30.724 -48.66,-33.01 -5.022,-2.098 -13.236,-1.756 -18.008,0.751"
     stroke="none"
     fill="#9b9b9b"
     fill-rule="evenodd"
     id="path2"
     style="fill:#ffffff;fill-opacity:1;stroke:#000000;stroke-width:150;stroke-linejoin:round;stroke-dasharray:none;stroke-opacity:1;paint-order:stroke fill markers" />
  <path
     style="fill:#ffffff;fill-opacity:1;stroke-width:1000;stroke-linecap:round;stroke-linejoin:round;paint-order:stroke markers fill"
     id="path3"
     sodipodi:type="arc"
     sodipodi:cx="677.60864"
     sodipodi:cy="990.97357"
     sodipodi:rx="202.94736"
     sodipodi:ry="279.59216"
     sodipodi:start="6.0457271"
     sodipodi:end="6.0241321"
     sodipodi:open="true"
     sodipodi:arc-type="arc"
     d="M 874.8611,925.20429 A 202.94736,279.59216 0 0 1 726.41276,1262.3611 202.94736,279.59216 0 0 1 480.88315,1059.6731 202.94736,279.59216 0 0 1 626.68039,720.32785 202.94736,279.59216 0 0 1 873.78424,919.35172" />
  <path
     id="path4"
     style="fill:#010101;stroke:#ffffff;stroke-width:30.4213;stroke-linecap:round;stroke-linejoin:round;paint-order:stroke markers fill"
     d="m 190.88393,349.93399 80.25583,46.33573 -1e-5,92.67144 -80.25583,46.33573 -80.25582,-46.33573 0,-92.67145 z"
     transform="matrix(2.3898216,0,0,4.5214672,222.74017,-1148.5678)" />
  <path
     style="fill:none;fill-opacity:1;stroke:#ffffff;stroke-width:50;stroke-linecap:round;stroke-linejoin:round;stroke-dasharray:none;stroke-opacity:1;paint-order:stroke fill markers"
     d="M 825.82004,592.25835 679.30735,737.91025 M 534.01154,592.25835 678.78682,737.03363 V 978.32116 L 538.43973,1118.6683 m 280.29913,0 -139.64505,-138.76211"
     id="path7"
     sodipodi:nodetypes="cccccccc" />
</svg>
