<?xml version="1.0" encoding="UTF-8" standalone="no"?>
<svg
   version="1.1"
   width="31.759062"
   height="32.000095"
   id="svg6"
   sodipodi:docname="new-owl-3.svg"
   inkscape:version="1.3.2 (091e20ef0f, 2023-11-25)"
   xmlns:inkscape="http://www.inkscape.org/namespaces/inkscape"
   xmlns:sodipodi="http://sodipodi.sourceforge.net/DTD/sodipodi-0.dtd"
   xmlns="http://www.w3.org/2000/svg"
   xmlns:svg="http://www.w3.org/2000/svg">
  <defs
     id="defs6" />
  <sodipodi:namedview
     id="namedview6"
     pagecolor="#ffffff"
     bordercolor="#000000"
     borderopacity="0.25"
     inkscape:showpageshadow="2"
     inkscape:pageopacity="0.0"
     inkscape:pagecheckerboard="0"
     inkscape:deskcolor="#d1d1d1"
     inkscape:zoom="17.378598"
     inkscape:cx="7.6243204"
     inkscape:cy="16.457024"
     inkscape:window-width="3840"
     inkscape:window-height="2091"
     inkscape:window-x="2560"
     inkscape:window-y="0"
     inkscape:window-maximized="1"
     inkscape:current-layer="svg6" />
  <path
     d="m 28.145333,3.0331786 c 0.172595,0.5177844 -0.166285,0.9922743 -0.390914,1.4659218 -1.442367,2.793285 -4.17325,4.4030952 -6.785994,5.9369756 -2.140854,1.257428 -3.954817,2.514419 -5.039107,4.81311 -0.225196,-0.283136 -0.388549,-0.568491 -0.549723,-0.89177 -0.324729,-0.601465 -0.728603,-1.06907 -1.209386,-1.551433 -0.06877,-0.07104 -0.137563,-0.142099 -0.20843,-0.215306 -1.123235,-1.088009 -2.57942,-1.813866 -3.926685,-2.582159 C 7.5240455,8.5736839 5.0646344,6.7655533 3.7927076,4.0898641 3.7630616,4.0277371 3.7333346,3.965602 3.7027409,3.9015877 3.5052953,3.4617577 3.5052953,3.4617577 3.6155768,3.1309051 c 0.068526,0.094738 0.1370682,0.1894671 0.2076759,0.2870721 1.4730579,1.7168274 3.9552867,2.1700467 6.071355,2.4493104 4.1441213,0.5513346 4.1441213,0.5513346 5.6285273,1.7339103 0.197908,0.1412316 0.197908,0.1412316 0.40351,0.1130031 0.248354,-0.1100628 0.457188,-0.2508408 0.680659,-0.4054212 1.57724,-1.0148247 3.41995,-1.1982978 5.240668,-1.4353848 2.238994,-0.297189 4.577448,-0.782541 6.114115,-2.5958961 0.0907,-0.1209411 0.0907,-0.1209411 0.183246,-0.2443203 z"
     fill="#000000"
     id="path2"
     style="stroke:#ffffff;stroke-width:4.5;stroke-linecap:round;stroke-linejoin:round;stroke-dasharray:none;stroke-opacity:1;paint-order:stroke fill markers" />
  <path
     d="m 3.1269362,3.9127252 c 0.032238,0 0.064476,0 0.097735,0 0.013203,0.069903 0.026487,0.1398384 0.040095,0.2118717 0.2593944,1.2006792 0.8331093,2.1797343 1.621296,3.110886 0.048114,0.05994 0.096244,0.1199286 0.1458243,0.1817154 0.3665817,0.4478247 0.7727319,0.823041 1.222371,1.1864799 0.050544,0.040905 0.1011609,0.081851 0.1532682,0.1240191 1.4550354,1.1644398 3.0652344,2.0562497 4.7025923,2.9360877 0.739627,0.398496 1.43417,0.799479 2.082834,1.337659 0.08579,0.07007 0.171574,0.140081 0.259969,0.212252 0.539412,0.460769 0.946947,0.933452 1.303679,1.546849 C 14.47016,14.647996 14.186141,14.530772 13.903387,14.409337 12.99562,14.020383 12.08181,13.65253 11.158985,13.300731 4.8636572,10.896975 4.8636572,10.896975 3.5178665,8.0173111 3.1475507,7.0931416 3.0126938,6.2581369 3.0170111,5.2687057 c -3.807e-4,-0.087302 -7.533e-4,-0.1746036 -8.1e-4,-0.2645541 1.215e-4,-0.084281 2.511e-4,-0.1685529 3.807e-4,-0.255393 1.62e-4,-0.1141533 1.62e-4,-0.1141533 3.321e-4,-0.2306232 0.012555,-0.2133702 0.051597,-0.4003668 0.1103706,-0.6054102 z"
     fill="#000000"
     id="path3"
     style="stroke:#ffffff;stroke-width:4.5;stroke-linecap:round;stroke-linejoin:round;stroke-dasharray:none;stroke-opacity:1;paint-order:stroke fill markers" />
  <path
     d="m 28.536239,3.9127252 c 0.03224,0 0.06448,0 0.09774,0 0.312182,1.9713294 -0.05176,3.7357524 -1.178089,5.3739045 -0.185384,0.2376864 -0.377913,0.4626153 -0.581021,0.6852438 -0.05054,0.059456 -0.101031,0.1189165 -0.153082,0.1801845 -1.484778,1.63735 -3.999358,2.354063 -5.99157,3.112028 -0.319447,0.121913 -0.638822,0.244013 -0.958051,0.366501 -0.196652,0.07541 -0.393426,0.150498 -0.590353,0.22518 -0.569154,0.217866 -1.120376,0.457998 -1.668519,0.724699 -0.0712,0.02714 -0.142414,0.05435 -0.215776,0.08235 -0.06448,-0.03224 -0.129,-0.06448 -0.195461,-0.09773 1.27247,-1.692009 2.928361,-2.606572 4.767806,-3.567863 2.724702,-1.432445 5.290888,-3.373043 6.470928,-6.3026753 0.04301,-0.1433214 0.08277,-0.2877687 0.116049,-0.4336659 0.02624,-0.1148904 0.05241,-0.2297889 0.07938,-0.3481623 z"
     fill="#000000"
     id="path4"
     style="stroke:#ffffff;stroke-width:4.5;stroke-linecap:round;stroke-linejoin:round;stroke-dasharray:none;stroke-opacity:1;paint-order:stroke fill markers" />
  <path
     d="m 5.2769597,11.535522 c 0.3381669,0.161765 0.6552414,0.35201 0.9772812,0.543607 1.7718669,1.020535 3.7113552,1.704475 5.6146041,2.435273 0.662353,0.254356 1.323264,0.512277 1.983755,0.771436 0.178653,0.06998 0.357315,0.139976 0.535977,0.20996 0.122666,0.04811 0.24534,0.0962 0.368007,0.144302 0,0.03224 0,0.06448 0,0.09773 -0.483756,0 -0.967513,0 -1.465922,0 -0.09675,0.290256 -0.09675,0.290256 -0.195461,0.586367 -0.405899,0.648057 -0.92323,0.994567 -1.661375,1.172743 C 10.690181,17.618371 10.09083,17.444529 9.479264,17.008295 8.9436353,16.47943 8.626091,15.833714 8.5752797,15.08427 8.5964207,14.804463 8.6314127,14.544283 8.6974439,14.271904 8.5744859,14.233591 8.4515279,14.195278 8.324852,14.155856 7.8545822,14.000587 7.4128487,13.799626 6.9661985,13.586661 6.753533,13.477149 6.753533,13.477149 6.5474204,13.490084 c -0.3035151,1.369605 -0.2618487,2.741324 0.4470309,3.983183 0.6841179,1.030013 1.6263018,1.70953 2.8390743,2.014875 1.1520544,0.200986 2.1776114,-0.0089 3.1761634,-0.614619 0.183247,-0.106127 0.183247,-0.106127 0.476426,-0.203853 -0.232616,0.827083 -0.946274,1.382111 -1.654506,1.803773 -1.485726,0.746641 -3.0163101,0.623408 -4.6000869,0.346242 0.8511966,0.322178 1.6996959,0.642355 2.5723251,0.902203 1.3464628,0.40163 2.5680478,0.967334 3.6822678,1.834188 0.05945,0.0435 0.118924,0.08692 0.180185,0.131706 1.061432,0.827431 1.868208,2.177061 2.165292,3.484231 0.160274,-0.306042 0.284747,-0.618581 0.409236,-0.940629 0.247917,-0.597626 0.56137,-1.092082 0.958959,-1.6003 0.07484,-0.09902 0.07484,-0.09902 0.15117,-0.200038 1.543002,-1.909656 3.936673,-2.571296 6.197075,-3.218106 0.311915,-0.105 0.592953,-0.239654 0.883629,-0.393255 -0.117158,0.02114 -0.117158,0.02114 -0.236682,0.04277 -1.562968,0.264166 -3.131759,0.261023 -4.551997,-0.5314 -0.547463,-0.40871 -1.042891,-0.859678 -1.368187,-1.465922 0,-0.06448 0,-0.129001 0,-0.195453 0.205148,0.101169 0.407835,0.204719 0.608504,0.314563 1.106857,0.591284 2.167908,0.692696 3.397197,0.397022 1.144181,-0.375459 1.930197,-1.048205 2.542079,-2.07978 0.282901,-0.585485 0.500669,-1.158527 0.501617,-1.813315 1.95e-4,-0.126417 1.95e-4,-0.126417 3.81e-4,-0.255385 -3.73e-4,-0.0873 -7.53e-4,-0.174612 -8.1e-4,-0.264554 3.81e-4,-0.08654 7.53e-4,-0.173097 8.1e-4,-0.262262 -6.64e-4,-0.448983 -0.01928,-0.871924 -0.111084,-1.313609 -0.05816,0.02665 -0.116372,0.0533 -0.17632,0.08076 -0.262748,0.120058 -0.525739,0.239557 -0.788746,0.35904 -0.09159,0.04196 -0.183173,0.0839 -0.27753,0.127122 -0.08756,0.03969 -0.175114,0.07938 -0.265324,0.120252 -0.121289,0.05524 -0.121289,0.05524 -0.245033,0.111659 -0.201609,0.08076 -0.201609,0.08076 -0.39707,0.08076 0.01612,0.05038 0.03224,0.10078 0.04884,0.152701 0.161222,0.785951 -0.04196,1.444327 -0.427559,2.125586 -0.419158,0.530104 -0.935047,0.892887 -1.614046,0.974989 -0.828752,0.02795 -1.445842,-0.181845 -2.058777,-0.742884 -0.262829,-0.287452 -0.541704,-0.642573 -0.541704,-1.04447 -0.516002,0 -1.032005,0 -1.563648,0 0.30064,-0.200427 0.577603,-0.316556 0.913907,-0.447793 0.06245,-0.02446 0.124853,-0.04892 0.189167,-0.07412 0.135384,-0.05306 0.270824,-0.105883 0.40632,-0.158606 0.21559,-0.08393 0.430977,-0.16835 0.646324,-0.252898 0.673733,-0.264311 1.34805,-0.527099 2.02308,-0.788081 1.842175,-0.712654 3.605901,-1.453545 5.300826,-2.480771 0.329192,0.382101 0.559629,0.772942 0.781829,1.221601 0.05111,0.103113 0.05111,0.103113 0.103307,0.208316 0.296338,0.613251 0.513791,1.231354 0.678513,1.892833 0.02195,0.08101 0.04382,0.162008 0.06642,0.24547 0.557474,2.432292 -0.122813,5.06165 -1.336889,7.181865 -0.480055,0.746091 -1.04972,1.411409 -1.661383,2.052289 -0.05054,0.05322 -0.101096,0.106515 -0.153179,0.161392 -1.925872,1.98446 -4.655532,2.99905 -7.18713,3.969422 -0.186203,0.07209 -0.371369,0.146415 -0.556624,0.220854 C 15.985748,29.128296 15.375826,28.977295 14.2618,28.5464 14.159749,28.50744 14.057697,28.4684 13.952559,28.428245 11.377795,27.433241 8.857829,26.368496 6.8405726,24.435715 6.7663766,24.367675 6.6921725,24.299659 6.6157166,24.22957 4.8665459,22.574051 3.674963,20.008692 3.5827121,17.600092 c -0.03159,-2.165551 0.3532248,-4.144397 1.5964776,-5.96676 0.032238,-0.03224 0.064476,-0.06448 0.097735,-0.09773 z"
     fill="#000000"
     id="path5"
     style="stroke:#ffffff;stroke-width:4.5;stroke-linecap:round;stroke-linejoin:round;stroke-dasharray:none;stroke-opacity:1;paint-order:stroke fill markers" />
  <path
     d="m 15.733865,16.910569 c 0.242085,0.03758 0.366436,0.07371 0.543607,0.247374 0.151243,0.207133 0.295342,0.416169 0.433674,0.632172 0.04107,0.0635 0.08213,0.126992 0.124449,0.192408 0.419507,0.773566 0.373418,1.725486 0.201941,2.567651 -0.232171,0.75782 -0.617471,1.441873 -1.010491,2.126347 -0.09675,0 -0.193501,0 -0.29318,0 -1.392131,-2.694967 -1.392131,-2.694967 -1.01088,-4.272167 0.229959,-0.563986 0.621562,-1.031203 1.01088,-1.493785 z"
     fill="#000000"
     id="path6"
     style="stroke:#ffffff;stroke-width:4.5;stroke-linecap:round;stroke-linejoin:round;stroke-dasharray:none;stroke-opacity:1;paint-order:stroke fill markers" />
  <path
     d="m 28.149657,3.0337868 c 0.172594,0.5177844 -0.166285,0.9922743 -0.390914,1.4659218 -1.442367,2.793285 -4.17325,4.4030952 -6.785994,5.9369764 -2.140854,1.257428 -3.954817,2.514418 -5.039107,4.813109 -0.225197,-0.283135 -0.388549,-0.56849 -0.549723,-0.891769 C 15.05919,13.756559 14.655316,13.288954 14.174532,12.806591 14.105763,12.735554 14.03697,12.664493 13.966103,12.591285 12.842868,11.503277 11.386682,10.77742 10.039418,10.009126 7.5283699,8.5742921 5.0689588,6.7661615 3.797032,4.0904723 3.767386,4.0283453 3.737659,3.9662102 3.7070653,3.9021959 3.5096197,3.4623659 3.5096197,3.4623659 3.6199012,3.1315133 c 0.068526,0.094738 0.1370682,0.1894671 0.2076759,0.2870721 1.4730579,1.7168274 3.9552867,2.1700467 6.071355,2.4493104 4.1441209,0.5513346 4.1441209,0.5513346 5.6285269,1.7339103 0.197907,0.1412316 0.197907,0.1412316 0.40351,0.1130031 0.248354,-0.1100628 0.457188,-0.2508408 0.680659,-0.4054212 1.57724,-1.0148247 3.419949,-1.1982978 5.240667,-1.4353848 2.238994,-0.297189 4.577448,-0.782541 6.114115,-2.5958961 0.0907,-0.1209411 0.0907,-0.1209411 0.183247,-0.2443203 z"
     fill="#000000"
     id="path2-9"
     style="stroke-width:0.0977283" />
  <path
     d="m 3.1312606,3.9133334 c 0.032238,0 0.064476,0 0.097735,0 0.013203,0.069903 0.026487,0.1398384 0.040095,0.2118717 0.2593944,1.2006792 0.8331093,2.1797343 1.621296,3.110886 0.048114,0.05994 0.096244,0.1199286 0.1458243,0.1817154 0.3665817,0.4478247 0.7727319,0.823041 1.222371,1.1864799 0.050544,0.040905 0.1011609,0.08185 0.1532682,0.1240191 1.4550354,1.1644398 3.0652344,2.0562505 4.7025919,2.9360885 0.739627,0.398496 1.434169,0.799478 2.082833,1.337658 0.08579,0.07006 0.171575,0.140082 0.25997,0.212253 0.539411,0.460768 0.946947,0.933452 1.303679,1.546848 C 14.474483,14.648604 14.190465,14.531381 13.90771,14.409946 12.999943,14.020992 12.086134,13.653138 11.163309,13.301339 4.8679816,10.897583 4.8679816,10.897583 3.5221909,8.0179193 3.1518751,7.0937498 3.0170182,6.2587451 3.0213355,5.2693139 c -3.807e-4,-0.087302 -7.533e-4,-0.1746036 -8.1e-4,-0.2645541 1.215e-4,-0.084281 2.511e-4,-0.1685529 3.807e-4,-0.255393 1.62e-4,-0.1141533 1.62e-4,-0.1141533 3.321e-4,-0.2306232 0.012555,-0.2133702 0.051597,-0.4003668 0.1103706,-0.6054102 z"
     fill="#000000"
     id="path3-4"
     style="stroke-width:0.0977283;stroke:none;stroke-opacity:1" />
  <path
     d="m 28.540563,3.9133334 c 0.03224,0 0.06448,0 0.09773,0 0.312182,1.9713294 -0.05176,3.7357524 -1.178088,5.3739045 -0.185385,0.2376864 -0.377914,0.4626153 -0.581021,0.6852438 -0.05054,0.059454 -0.101031,0.1189163 -0.153082,0.1801843 -1.484779,1.637351 -3.999359,2.354063 -5.99157,3.112029 -0.319448,0.121913 -0.638823,0.244012 -0.958052,0.3665 -0.196652,0.07541 -0.393425,0.150498 -0.590352,0.22518 -0.569155,0.217866 -1.120376,0.457999 -1.668519,0.724699 -0.0712,0.02714 -0.142414,0.05435 -0.215776,0.08235 -0.06448,-0.03224 -0.129001,-0.06448 -0.195461,-0.09773 1.272469,-1.692009 2.92836,-2.606572 4.767806,-3.567864 2.724702,-1.4324448 5.290887,-3.3730428 6.470928,-6.3026751 0.04301,-0.1433214 0.08277,-0.2877687 0.116048,-0.4336659 0.02624,-0.1148904 0.05241,-0.2297889 0.07938,-0.3481623 z"
     fill="#000000"
     id="path4-9"
     style="stroke-width:0.0977283;stroke:none;stroke-opacity:1" />
  <path
     d="m 5.2812841,11.53613 c 0.3381669,0.161765 0.6552414,0.35201 0.9772812,0.543608 1.7718669,1.020535 3.7113552,1.704474 5.6146027,2.435273 0.662354,0.254356 1.323265,0.512276 1.983755,0.771436 0.178654,0.06998 0.357315,0.139976 0.535977,0.20996 0.122667,0.04811 0.245341,0.09619 0.368007,0.144301 0,0.03224 0,0.06448 0,0.09773 -0.483756,0 -0.967512,0 -1.465921,0 -0.09675,0.290255 -0.09675,0.290255 -0.195461,0.586367 -0.4059,0.648056 -0.92323,0.994566 -1.661375,1.172742 -0.743644,0.121435 -1.342995,-0.05241 -1.9545616,-0.488641 C 8.9479597,16.480038 8.6304154,15.834322 8.5796041,15.084878 8.6007451,14.805072 8.6357371,14.544892 8.7017683,14.272513 8.5788103,14.2342 8.4558523,14.195887 8.3291764,14.156464 7.8589066,14.001195 7.4171731,13.800234 6.9705229,13.587269 6.7578574,13.477757 6.7578574,13.477757 6.5517448,13.490693 c -0.3035151,1.369604 -0.2618487,2.741323 0.4470309,3.983183 0.6841179,1.030012 1.6263018,1.709529 2.8390743,2.014875 1.152055,0.200985 2.177611,-0.0089 3.176163,-0.61462 0.183246,-0.106126 0.183246,-0.106126 0.476426,-0.203853 -0.232616,0.827083 -0.946275,1.382111 -1.654506,1.803773 -1.485726,0.746642 -3.0163097,0.623408 -4.6000865,0.346243 0.8511966,0.322177 1.6996959,0.642354 2.5723251,0.902202 1.3464624,0.40163 2.5680474,0.967334 3.6822674,1.834188 0.05945,0.0435 0.118924,0.08692 0.180184,0.131706 1.061432,0.827431 1.868208,2.177062 2.165292,3.484231 0.160275,-0.306042 0.284748,-0.61858 0.409236,-0.940628 0.247917,-0.597626 0.561371,-1.092083 0.958959,-1.600301 0.07484,-0.09901 0.07484,-0.09901 0.151171,-0.200038 1.543001,-1.909656 3.936673,-2.571296 6.197075,-3.218105 0.311915,-0.105001 0.592952,-0.239655 0.883629,-0.393255 -0.117159,0.02114 -0.117159,0.02114 -0.236682,0.04277 -1.562968,0.264165 -3.13176,0.261022 -4.551998,-0.531401 -0.547462,-0.40871 -1.042891,-0.859677 -1.368187,-1.465922 0,-0.06448 0,-0.129 0,-0.195453 0.205149,0.101169 0.407835,0.20472 0.608505,0.314564 1.106856,0.591284 2.167908,0.692696 3.397196,0.397021 1.144182,-0.375459 1.930198,-1.048204 2.54208,-2.07978 0.282901,-0.585484 0.500669,-1.158527 0.501617,-1.813315 1.94e-4,-0.126416 1.94e-4,-0.126416 3.8e-4,-0.255384 -3.72e-4,-0.0873 -7.53e-4,-0.174612 -8.1e-4,-0.264555 3.81e-4,-0.08654 7.54e-4,-0.173097 8.1e-4,-0.262261 -6.64e-4,-0.448983 -0.01928,-0.871925 -0.111083,-1.31361 -0.05816,0.02665 -0.116373,0.0533 -0.176321,0.08076 -0.262748,0.120058 -0.525738,0.239558 -0.788745,0.359041 -0.09159,0.04196 -0.183174,0.0839 -0.277531,0.127121 -0.08756,0.03969 -0.175114,0.07938 -0.265323,0.120253 -0.12129,0.05524 -0.12129,0.05524 -0.245033,0.111658 -0.201609,0.08076 -0.201609,0.08076 -0.39707,0.08076 0.01612,0.05038 0.03224,0.100781 0.04884,0.152702 0.161222,0.785951 -0.04196,1.444327 -0.427559,2.125585 -0.419159,0.530105 -0.935048,0.892888 -1.614046,0.974989 -0.828752,0.02794 -1.445842,-0.181845 -2.058777,-0.742883 -0.262829,-0.287453 -0.541704,-0.642573 -0.541704,-1.044471 -0.516003,0 -1.032005,0 -1.563648,0 0.300639,-0.200426 0.577602,-0.316556 0.913906,-0.447792 0.06245,-0.02446 0.124854,-0.04892 0.189168,-0.07411 0.135383,-0.05306 0.270823,-0.105883 0.40632,-0.158606 0.21559,-0.08393 0.430977,-0.168351 0.646323,-0.252898 0.673734,-0.264312 1.348051,-0.5271 2.023081,-0.788082 1.842175,-0.712654 3.605901,-1.453545 5.300826,-2.480771 0.329192,0.382102 0.559629,0.772943 0.781828,1.221602 0.05111,0.103113 0.05111,0.103113 0.103308,0.208316 0.296338,0.613251 0.513791,1.231354 0.678512,1.892832 0.02195,0.08101 0.04382,0.162008 0.06642,0.24547 0.557475,2.432293 -0.122812,5.06165 -1.336889,7.181865 -0.480054,0.746091 -1.049719,1.411409 -1.661382,2.052289 -0.05054,0.05322 -0.101097,0.106515 -0.15318,0.161393 -1.925872,1.984459 -4.655531,2.999049 -7.18713,3.969421 -0.186202,0.07209 -0.371368,0.146416 -0.556623,0.220855 -1.135313,0.438647 -1.745235,0.287647 -2.85926,-0.143249 -0.102052,-0.03896 -0.204104,-0.078 -0.309242,-0.118155 C 11.382122,27.433846 8.8621564,26.369101 6.8449,24.43632 6.770704,24.36828 6.6964999,24.300264 6.620044,24.230175 4.8708733,22.574656 3.6792904,20.009297 3.5870395,17.600698 c -0.03159,-2.165552 0.3532248,-4.144398 1.5964776,-5.96676 0.032238,-0.03224 0.064476,-0.06448 0.097735,-0.09773 z"
     fill="#000000"
     id="path5-0"
     style="stroke-width:0.0977283" />
  <path
     d="m 15.738189,16.911177 c 0.242084,0.03758 0.366436,0.07371 0.543607,0.247374 0.151243,0.207133 0.295342,0.41617 0.433674,0.632173 0.04107,0.0635 0.08213,0.126991 0.124448,0.192407 0.419507,0.773566 0.373418,1.725486 0.201941,2.567651 -0.23217,0.75782 -0.617471,1.441873 -1.010491,2.126348 -0.09675,0 -0.193501,0 -0.293179,0 -1.392131,-2.694968 -1.392131,-2.694968 -1.01088,-4.272167 0.229959,-0.563987 0.621561,-1.031203 1.01088,-1.493786 z"
     fill="#000000"
     id="path6-9"
     style="stroke-width:0.0977283" />
</svg>
