<?xml version="1.0" encoding="UTF-8" standalone="no"?>
<svg
   version="1.1"
   width="301"
   height="305"
   id="svg6"
   sodipodi:docname="new-owl-2.svg"
   inkscape:version="1.3.2 (091e20ef0f, 2023-11-25)"
   xmlns:inkscape="http://www.inkscape.org/namespaces/inkscape"
   xmlns:sodipodi="http://sodipodi.sourceforge.net/DTD/sodipodi-0.dtd"
   xmlns="http://www.w3.org/2000/svg"
   xmlns:svg="http://www.w3.org/2000/svg">
  <defs
     id="defs6" />
  <sodipodi:namedview
     id="namedview6"
     pagecolor="#ffffff"
     bordercolor="#000000"
     borderopacity="0.25"
     inkscape:showpageshadow="2"
     inkscape:pageopacity="0.0"
     inkscape:pagecheckerboard="0"
     inkscape:deskcolor="#d1d1d1"
     inkscape:zoom="3.0721311"
     inkscape:cx="66.891676"
     inkscape:cy="181.63287"
     inkscape:window-width="3840"
     inkscape:window-height="2091"
     inkscape:window-x="2560"
     inkscape:window-y="0"
     inkscape:window-maximized="1"
     inkscape:current-layer="svg6" />
  <path
     id="path2"
     d="m 264.4437,34.229303 -1.6875,2.25 c -14.15151,16.699568 -35.68697,21.169366 -56.30625,23.90625 -16.76737,2.18337 -33.73742,3.873005 -48.2625,13.21875 -2.05799,1.423569 -3.98125,2.720037 -6.26836,3.733595 -1.89341,0.259949 -1.89342,0.259947 -3.71602,-1.040625 C 134.53289,65.40669 134.53278,65.406658 96.368698,60.329303 76.881394,57.757447 54.021889,53.583664 40.456198,37.773053 l -1.9125,-2.64375 c -0.100026,0.30008 -0.140166,0.471194 -0.219726,0.718946 l -0.0018,0.0018 -4.178322,6.479297 h -0.100197 c -0.54126,1.888217 -0.900171,3.610822 -1.016019,5.575781 l -0.0035,2.123439 -0.0035,2.351952 0.01055,2.436328 c -0.03979,9.111878 1.202202,16.801679 4.6125,25.3125 12.393657,26.519424 12.39372,26.519474 70.368756,48.656244 8.4985,3.23981 16.91401,6.62741 25.27382,10.20938 2.60397,1.11831 5.21955,2.19788 7.85743,3.23437 -0.002,-0.003 -0.003,-0.007 -0.005,-0.0105 l 10.80528,4.54394 12.67031,-5.42988 0.12832,-0.0791 1.78769,-0.68204 c 5.04794,-2.45604 10.12528,-4.66804 15.3668,-6.67441 1.81355,-0.68773 3.62596,-1.3797 5.43692,-2.07422 2.93986,-1.12798 5.88058,-2.25227 8.82246,-3.375 18.34672,-6.98027 41.50408,-13.58066 55.17773,-28.659369 l 1.40977,-1.659375 c 1.87045,-2.050227 3.64349,-4.121627 5.35078,-6.310547 10.37293,-15.0861 13.72424,-31.335055 10.84922,-49.489453 h -0.0211 l 0.002,-0.01055 -4.46484,-8.013867 c -0.008,-0.02538 -0.007,-0.05018 -0.0158,-0.07559 z"
     style="fill:#000000;fill-opacity:1;stroke:#ffffff;stroke-width:36;stroke-linejoin:round;stroke-dasharray:none;stroke-opacity:1;paint-order:stroke fill markers" />
  <path
     id="path9"
     style="fill:#000000;fill-opacity:1;stroke:#ffffff;stroke-width:36;stroke-linejoin:round;stroke-dasharray:none;stroke-opacity:1;paint-order:stroke fill markers"
     d="m 53.843698,112.5293 -0.9,0.9 c -11.449378,16.78247 -14.993131,35.00623 -14.702344,54.94922 0.849583,22.18125 11.823195,45.80636 27.931641,61.05234 l 2.070703,1.89844 c 18.577283,17.79934 41.784652,27.60495 65.496092,36.76817 l 2.84766,1.08808 c 10.25932,3.96824 15.8767,5.35796 26.33203,1.31836 1.70603,-0.68558 3.41109,-1.37021 5.12578,-2.03378 23.314,-8.93637 48.45295,-18.27843 66.18867,-36.55372 l 1.40977,-1.48711 c 5.6329,-5.90202 10.87913,-12.02914 15.3,-18.9 11.18068,-19.5255 17.44565,-43.74001 12.31172,-66.13945 l -0.61172,-2.26055 c -1.51695,-6.09172 -3.51997,-11.78466 -6.24903,-17.43222 l -0.95097,-1.91778 c -2.04628,-4.13176 -4.16838,-7.73115 -7.2,-11.25 -6.74411,4.08735 -13.61373,7.66367 -20.60156,10.95821 -9.18516,4.33048 -18.57971,8.16077 -28.21465,11.88809 -6.21651,2.40347 -12.4265,4.82386 -18.63106,7.258 -1.98316,0.77861 -3.96655,1.55619 -5.95195,2.3291 -1.24782,0.48554 -2.49564,0.97246 -3.74238,1.46075 l -1.742,0.68203 c -3.0971,1.2086 -5.64777,2.27807 -8.4164,4.12382 h 14.4 c 0,3.70114 2.56822,6.97157 4.98867,9.61875 5.64462,5.16671 11.32755,7.09894 18.95977,6.84141 6.25303,-0.75608 11.00398,-4.09705 14.86406,-8.97891 3.55124,-6.27385 5.42222,-12.33701 3.9375,-19.575 l -0.45,-1.40625 c 1.8,0 1.79956,0 3.65625,-0.74355 l 2.25703,-1.02832 2.44336,-1.10742 2.55586,-1.17071 c 1.21212,-0.55066 2.42336,-1.10274 3.63515,-1.6541 1.20964,-0.55037 2.41938,-1.10001 3.62813,-1.65234 l 1.62422,-0.74356 c 0.84573,4.06756 1.01688,7.96253 1.02305,12.09727 l -0.0105,2.41523 0.0105,2.43633 -0.004,2.35195 c -0.002,1.06312 -0.0859,2.09554 -0.20391,3.1166 a 88.451051,88.451051 0 0 1 0.0281,0.18985 c -0.58862,4.65021 -2.27053,8.93018 -4.36993,13.275 -5.6349,9.49996 -12.8736,15.69545 -23.41054,19.15312 -11.32078,2.72292 -21.09234,1.78897 -31.28555,-3.65625 -1.84801,-1.01154 -3.71465,-1.96519 -5.60391,-2.89687 v 1.8 c 2.99575,5.58296 7.55832,9.73608 12.6,13.5 13.07918,7.29753 27.5267,7.32648 41.92032,4.89375 l 2.17617,-0.39375 h 0.004 l 1.14435,-0.5748 1.08983,-0.62755 1.43965,-0.92285 1.03008,-0.70663 0.22676,-0.18457 a 88.451051,88.451051 0 0 1 -62.79434,58.44902 88.451051,88.451051 0 0 1 -20.9918,2.32735 l -0.002,-0.002 -0.7418,-0.005 -0.005,0.004 A 88.451051,88.451051 0 0 1 68.038033,196.93595 l 1.76836,0.68027 2.091797,0.7875 0.558985,0.20391 c -0.188982,-0.0716 -0.378766,-0.14292 -0.567774,-0.21446 14.707347,2.57378 28.921579,3.71846 42.718359,-3.21504 6.57681,-3.91559 13.20313,-9.06971 15.36328,-16.7502 -2.72259,0.90753 -2.72105,0.90764 -4.42265,1.89317 -9.27283,5.62505 -18.79785,7.57403 -29.496098,5.70762 -11.262124,-2.8355 -20.010803,-9.14517 -26.363672,-18.71016 -2.898798,-5.07828 -4.538525,-10.39823 -5.289258,-15.83965 a 88.451051,88.451051 0 0 1 0.0053,-0.0439 c -0.93363,-6.83656 -0.42005,-13.87033 1.139063,-20.90567 1.898096,-0.11908 1.898111,-0.11908 3.85664,0.88946 0.342456,0.16327 0.686318,0.30776 1.02832,0.46934 3.765848,1.77904 7.513547,3.46164 11.48379,4.77245 l 3.43125,1.06875 c -0.608091,2.50838 -0.930525,4.90446 -1.125,7.48125 0.467918,6.9018 3.392298,12.84837 8.325,17.71875 5.632005,4.01731 11.151635,5.61833 18.000005,4.5 6.79774,-1.64083 11.56196,-4.8319 15.3,-10.8 l 1.8,-5.4 h 13.5 v -0.9 c -1.12966,-0.44305 -2.25935,-0.88599 -3.38906,-1.3289 -1.64532,-0.64451 -3.29064,-1.28904 -4.93594,-1.9336 -6.08256,-2.38666 -12.16921,-4.76268 -18.26895,-7.10507 -13.44472,-5.16243 -27.079231,-10.08345 -40.069336,-16.33184 -3.944675,-1.89741 -7.835821,-3.90515 -11.636719,-6.09434 -2.96572,-1.76446 -5.885733,-3.51649 -9,-5.00625 z" />
  <path
     d="m 431.28606,67.414218 c 3.46031,1.65529 6.70474,3.60198 10,5.5625 18.13064,10.4426 37.97636,17.44093 57.45136,24.91882 6.77749,2.602672 13.54022,5.241832 20.29864,7.893682 1.82811,0.71617 3.65624,1.43232 5.48437,2.14844 1.25524,0.49212 2.51046,0.98428 3.76563,1.47656 0,0.33 0,0.66 0,1 -4.95,0 -9.9,0 -15,0 -0.99,2.97 -0.99,2.97 -2,6 -4.15337,6.63123 -9.44693,10.17685 -17,12 -7.60932,1.24258 -13.7422,-0.53632 -20,-5 -5.48079,-5.41156 -8.73009,-12.01883 -9.25,-19.6875 0.21608,-2.8631 0.57434,-5.525412 1.25,-8.312502 -1.25813,-0.39188 -2.51625,-0.78375 -3.8125,-1.1875 -4.81202,-1.58873 -9.33206,-3.64514 -13.90234,-5.82422 -2.17616,-1.1206 -2.17616,-1.1206 -4.28516,-0.98828 -3.10577,14.014442 -2.67935,28.050562 4.57422,40.757812 7.0002,10.53963 16.64109,17.49276 29.05078,20.61719 11.78835,2.0566 22.28231,-0.0908 32.5,-6.28906 1.875,-1.08594 1.875,-1.08594 4.875,-2.08594 -2.38025,8.46311 -9.68274,14.14243 -16.92969,18.45703 -15.20263,7.64 -30.86434,6.37902 -47.07031,3.54297 8.70986,3.29668 17.39217,6.57282 26.32129,9.23169 13.77766,4.1097 26.27745,9.8983 37.67871,18.76831 0.60844,0.44473 1.21687,0.88945 1.84375,1.34766 10.86106,8.46668 19.11634,22.27673 22.15625,35.65234 1.63998,-3.13155 2.91369,-6.32962 4.1875,-9.625 2.53682,-6.11515 5.7442,-11.17464 9.8125,-16.375 0.7657,-1.0132 0.7657,-1.0132 1.54688,-2.04688 15.78874,-19.54053 40.28189,-26.31075 63.41137,-32.92919 3.19166,-1.07439 6.06738,-2.45226 9.04175,-4.02393 -1.19883,0.21656 -1.19883,0.21656 -2.42188,0.4375 -15.99297,2.70304 -32.04566,2.67091 -46.57812,-5.4375 -5.6019,-4.18214 -10.67139,-8.79668 -14,-15 0,-0.66 0,-1.32 0,-2 2.09917,1.03521 4.1732,2.0948 6.22656,3.21875 11.32583,6.05028 22.18302,7.08797 34.76172,4.0625 11.70775,-3.84186 19.75069,-10.7257 26.01172,-21.28125 2.89478,-5.99094 5.12311,-11.85462 5.13281,-18.55469 0.002,-1.29357 0.002,-1.29357 0.004,-2.61328 -0.004,-0.89332 -0.008,-1.78664 -0.0117,-2.70703 0.004,-0.88559 0.008,-1.77117 0.0117,-2.683592 -0.007,-4.59417 -0.19711,-8.9219 -1.13681,-13.44141 -0.59539,0.27264 -1.19077,0.54527 -1.8042,0.82617 -2.68851,1.2285 -5.3796,2.45123 -8.0708,3.67383 -0.93715,0.42926 -1.8743,0.85852 -2.83984,1.30078 -0.8959,0.40606 -1.7918,0.81211 -2.71485,1.23047 -1.24112,0.56558 -1.24112,0.56558 -2.50732,1.14258 -2.06299,0.82617 -2.06299,0.82617 -4.06299,0.82617 0.165,0.51562 0.33,1.03125 0.5,1.5625 1.64969,8.042222 -0.42917,14.779032 -4.375,21.750002 -4.28898,5.4243 -9.5678,9.13647 -16.51563,9.97656 -8.48025,0.28615 -14.79458,-1.86077 -21.0664,-7.60156 -2.68939,-2.94131 -5.54297,-6.57513 -5.54297,-10.6875 -5.28,0 -10.56,0 -16,0 3.07626,-2.05084 5.91033,-3.23914 9.35156,-4.58203 0.63877,-0.2504 1.27753,-0.5008 1.93566,-0.75879 1.38527,-0.54254 2.77117,-1.08346 4.15763,-1.62296 2.20601,-0.85879 4.40997,-1.72261 6.6135,-2.58773 6.89397,-2.704612 13.79387,-5.393522 20.7011,-8.064082 18.85003,-7.29219 36.89728,-14.87334 54.24055,-25.38441 3.36847,3.90984 5.72636,7.90914 8,12.5 0.52328,1.05514 0.52328,1.05514 1.05713,2.13159 3.03229,6.27511 5.25737,12.5998 6.94287,19.368412 0.2243,0.82887 0.44859,1.65773 0.67969,2.51172 5.7044,24.88839 -1.25667,51.7932 -13.67969,73.48828 -4.91209,7.63432 -10.74118,14.44216 -17,21 -0.51724,0.54495 -1.03447,1.0899 -1.56738,1.65137 -19.70644,20.30595 -47.63765,30.68773 -73.54218,40.61706 -1.90525,0.7373 -3.80003,1.49814 -5.69562,2.25989 -11.61707,4.48845 -17.85803,2.94333 -29.25732,-1.46582 -1.04422,-0.39896 -2.08844,-0.79793 -3.16431,-1.20898 -26.34613,-10.1814 -52.13168,-21.0764 -72.77319,-40.85352 -0.75926,-0.69609 -1.51852,-1.39219 -2.30078,-2.10938 -17.89835,-16.94005 -30.09118,-43.18998 -31.03516,-67.83593 -0.3231,-22.15896 3.61436,-42.407422 16.33594,-61.054692 0.33,-0.33 0.66,-0.66 1,-1 z"
     fill="#000000"
     id="path5-7" />
  <path
     d="m 150.1437,162.0293 c 2.22946,0.34595 3.3746,0.67912 5.00625,2.27813 1.39282,1.90755 2.71983,3.83265 3.99375,5.82187 0.37821,0.58472 0.75642,1.16944 1.14609,1.77188 3.86337,7.12393 3.43893,15.89042 1.85977,23.64609 -2.13811,6.97893 -5.68646,13.27858 -9.30586,19.58203 -0.891,0 -1.782,0 -2.7,0 -12.8204,-24.81858 -12.8204,-24.81858 -9.30938,-39.34336 2.11773,-5.19389 5.72407,-9.49656 9.30938,-13.75664 z"
     fill="#000000"
     id="path6"
     style="stroke:#ffffff;stroke-width:36;stroke-linejoin:round;stroke-dasharray:none;stroke-opacity:1;paint-order:stroke fill markers" />
  <g
     id="g16"
     transform="matrix(0.9,0,0,0.9,321.21293,213.35121)">
    <path
       id="path2-2"
       d="m -63.185234,-199.01207 -1.875,2.5 c -15.7239,18.55508 -39.652176,23.52152 -62.562496,26.5625 -18.63041,2.42597 -37.48602,4.30334 -53.625,14.6875 -2.28665,1.58175 -4.42361,3.02227 -6.96484,4.14844 -2.10379,0.28883 -2.1038,0.28883 -4.12891,-1.15625 -15.18909,-12.10065 -15.18921,-12.10068 -57.59375,-17.74219 -21.65256,-2.85762 -47.05201,-7.49515 -62.125,-25.0625 l -2.125,-2.9375 c -0.11114,0.33342 -0.15574,0.52355 -0.24414,0.79883 l -0.002,0.002 -4.64253,7.19917 h -0.11133 c -0.6014,2.09802 -1.00019,4.01203 -1.12891,6.19531 l -0.004,2.35938 -0.004,2.61328 0.0117,2.70703 c -0.0442,10.12431 1.33578,18.66853 5.125,28.125 13.77073,29.46604 13.7708,29.46609 78.1875,54.062503 9.44278,3.59978 18.79335,7.36379 28.08203,11.34375 2.8933,1.24257 5.79949,2.44209 8.73047,3.59375 -0.002,-0.004 -0.004,-0.008 -0.006,-0.0117 l 12.00586,5.04883 14.07812,-6.0332 0.14258,-0.0879 1.98633,-0.75782 c 5.60882,-2.72894 11.2503,-5.18672 17.07422,-7.41601 2.01505,-0.76415 4.02884,-1.533 6.04102,-2.30469 3.26651,-1.25331 6.53398,-2.50253 9.80273,-3.75 20.38525,-7.755853 46.115646,-15.089623 61.308586,-31.843753 l 1.56676,-1.84376 c 2.07828,-2.27803 4.04832,-4.57958 5.94531,-7.01172 11.52548,-16.76233 15.24916,-34.81672 12.05469,-54.98828 h -0.0234 l 0.002,-0.0117 -4.96094,-8.9043 c -0.009,-0.0282 -0.008,-0.0558 -0.0176,-0.084 z"
       style="fill:#000000;fill-opacity:1" />
    <path
       id="path9-2"
       style="fill:#000000;fill-opacity:1;stroke:none;stroke-opacity:1"
       d="m -297.18523,-112.01207 -1,1 c -12.72153,18.647193 -16.65904,38.895813 -16.33594,61.054693 0.94398,24.64583 13.13688,50.89594951 31.03516,67.83593 l 2.30078,2.10938 c 20.64142,19.77704 46.42739,30.67216 72.77344,40.85352 l 3.16406,1.20898 c 11.39925,4.40915 17.64078,5.95329 29.25781,1.46484 1.89559,-0.76175 3.7901,-1.52246 5.69531,-2.25976 25.90445,-9.9293 53.83662,-20.30936 73.542966,-40.61524 l 1.56641,-1.65234 c 6.25878,-6.5578 12.08792,-13.3657105 17,-21.0000005 12.42298,-21.6949995 19.38406,-48.6000095 13.67969,-73.4882795 l -0.67969,-2.51172 c -1.6855,-6.76858 -3.91107,-13.09407 -6.94336,-19.36914 l -1.05664,-2.13086 c -2.27364,-4.590853 -4.63153,-8.590173 -8,-12.500003 -7.49345,4.5415 -15.12636,8.51519 -22.890616,12.175783 -10.20573,4.81165 -20.64412,9.06753 -31.34961,13.20899 -6.90723,2.67053 -13.80722,5.35985 -20.70118,8.06445 -2.20351,0.86512 -4.40728,1.7291 -6.61328,2.58789 -1.38646,0.53949 -2.77293,1.08051 -4.1582,1.62305 l -1.93555,0.75781 c -3.44122,1.34289 -6.2753,2.53119 -9.35156,4.58203 h 16 c 0,4.11237 2.85358,7.74619 5.54297,10.6875 6.2718,5.74078 12.58617,7.88771 21.06641,7.60156 6.94781,-0.84009 12.22664,-4.55228 16.51562,-9.97656 3.94583,-6.97095 6.02469,-13.70779 4.375,-21.75 l -0.5,-1.5625 c 2,0 1.99951,0 4.0625,-0.82617 l 2.50781,-1.14258 2.71485,-1.23047 2.83984,-1.30078 c 1.3468,-0.61185 2.69263,-1.22527 4.039056,-1.83789 1.34404,-0.61152 2.6882,-1.22224 4.03125,-1.83594 l 1.80469,-0.82617 c 0.9397,4.51951 1.12987,8.84725 1.13672,13.44141 l -0.0117,2.68359 0.0117,2.70703 -0.004,2.61328 c -0.002,1.18124 -0.0954,2.32837 -0.22656,3.46289 a 98.278946,98.278946 0 0 1 0.0312,0.21094 c -0.65402,5.1669 -2.52281,9.92242 -4.85547,14.75 -6.260996,10.55551 -14.304006,17.43939 -26.011716,21.28125 -12.57864,3.02546 -23.43593,1.98774 -34.76172,-4.0625 -2.05334,-1.12394 -4.12739,-2.18355 -6.22656,-3.21875 v 2 c 3.32861,6.20329 8.39813,10.81787 14,15 14.53242,8.10837 30.58522,8.14053 46.57813,5.4375 l 2.41796,-0.4375 h 0.004 l 1.271486,-0.63867 1.21093,-0.69727 1.59961,-1.02539 1.14453,-0.78515 0.25196,-0.20508 a 98.278946,98.278946 0 0 1 -69.771486,64.94336 98.278946,98.278946 0 0 1 -23.32422,2.58594 l -0.002,-0.002 -0.82422,-0.006 -0.006,0.004 a 98.278946,98.278946 0 0 1 -91.86109,-65.25772 l 1.96484,0.75586 2.32422,0.875 0.6211,0.22656 c -0.20998,-0.0795 -0.42085,-0.15879 -0.63086,-0.23828 16.34149,2.85975 32.13509,4.13162 47.46484,-3.57227 7.30757,-4.35066 14.67015,-10.07746 17.07032,-18.61133 -3.0251,1.00836 -3.02339,1.00849 -4.91406,2.10352 -10.30314,6.25005 -20.8865,8.41559 -32.77345,6.3418 -12.51347,-3.15056 -22.23422,-10.1613 -29.29296,-20.78907 -3.22089,-5.64253 -5.04281,-11.55359 -5.87696,-17.59961 a 98.278946,98.278946 0 0 1 0.006,-0.0488 c -1.03741,-7.5962 -0.46676,-15.4115 1.26559,-23.22854 2.10899,-0.13232 2.10901,-0.13231 4.28515,0.98828 0.38051,0.18142 0.76258,0.34196 1.14258,0.52149 4.18428,1.97672 8.34839,3.84627 12.75977,5.30273 l 3.8125,1.1875 c -0.67566,2.78709 -1.03392,5.4494 -1.25,8.3125 0.51991,7.66866 3.76922,14.27596 9.25,19.6875 6.25778,4.46367 12.3907,6.24258 20,5 7.55305,-1.82315 12.84663,-5.36878 17,-12 l 2,-6 h 15 v -1 c -1.25517,-0.49228 -2.51039,-0.98444 -3.76562,-1.47656 -1.82813,-0.71612 -3.65627,-1.43227 -5.48438,-2.14844 -6.7584,-2.65185 -13.52134,-5.29187 -20.29883,-7.89453 -14.93858,-5.73603 -30.08804,-11.20383 -44.52149,-18.14649 -4.38297,-2.108233 -8.70646,-4.339053 -12.92968,-6.771483 -3.29525,-1.96052 -6.53971,-3.90721 -10,-5.5625 z" />
    <path
       d="m -190.18523,-57.012067 c 2.47718,0.384389 3.74956,0.75457 5.5625,2.53125 1.54758,2.119505 3.02204,4.258507 4.4375,6.46875 0.42023,0.649687 0.84047,1.299375 1.27344,1.96875 4.29263,7.915484 3.82103,17.656023 2.0664,26.273437 -2.37567,7.754366 -6.31828,14.7539705 -10.33984,21.7578125 -0.99,0 -1.98,0 -3,0 -14.24489,-27.5762075 -14.24489,-27.5762075 -10.34375,-43.7148435 2.35302,-5.770997 6.36007,-10.551741 10.34375,-15.285156 z"
       fill="#000000"
       id="path6-6" />
  </g>
  <path
     style="fill:#ffffff;fill-opacity:1;stroke:none;stroke-width:36;stroke-linecap:round;stroke-linejoin:round;stroke-dasharray:none;stroke-opacity:1;paint-order:stroke fill markers"
     d="m 93.208677,211.82274 c 0.622112,-0.47915 34.436053,-12.20918 34.436053,-12.20918 l 21.26275,25.7552 26.85366,-28.16081 37.70595,20.33949 -46.42122,31.04279 -45.02621,-4.27145 z"
     id="path16" />
</svg>
