<?xml version="1.0" encoding="UTF-8" standalone="no"?>
<svg
   version="1.0"
   width="759.11096pt"
   height="654.2085pt"
   viewBox="0 0 759.11097 654.2085"
   preserveAspectRatio="xMidYMid"
   id="svg4"
   sodipodi:docname="new-owl-1.svg"
   inkscape:version="1.3.2 (091e20ef0f, 2023-11-25)"
   xmlns:inkscape="http://www.inkscape.org/namespaces/inkscape"
   xmlns:sodipodi="http://sodipodi.sourceforge.net/DTD/sodipodi-0.dtd"
   xmlns="http://www.w3.org/2000/svg"
   xmlns:svg="http://www.w3.org/2000/svg">
  <defs
     id="defs4" />
  <sodipodi:namedview
     id="namedview4"
     pagecolor="#ffffff"
     bordercolor="#000000"
     borderopacity="0.25"
     inkscape:showpageshadow="2"
     inkscape:pageopacity="0.0"
     inkscape:pagecheckerboard="0"
     inkscape:deskcolor="#d1d1d1"
     inkscape:document-units="pt"
     inkscape:zoom="1.9876772"
     inkscape:cx="498.32036"
     inkscape:cy="483.47892"
     inkscape:window-width="3840"
     inkscape:window-height="2091"
     inkscape:window-x="2560"
     inkscape:window-y="0"
     inkscape:window-maximized="1"
     inkscape:current-layer="svg4" />
  <path
     style="fill:#ffffff;fill-opacity:1;stroke:none;stroke-width:32.0855;stroke-linecap:round;stroke-linejoin:round;stroke-dasharray:none;stroke-opacity:1;paint-order:stroke fill markers"
     id="path7"
     sodipodi:type="arc"
     sodipodi:cx="252.90166"
     sodipodi:cy="349.92847"
     sodipodi:rx="99.14798"
     sodipodi:ry="114.30551"
     sodipodi:start="6.0457271"
     sodipodi:end="6.0241321"
     sodipodi:open="true"
     sodipodi:arc-type="arc"
     d="M 349.26745,323.04005 A 99.14798,114.30551 0 0 1 276.74444,460.87967 99.14798,114.30551 0 0 1 156.79331,378.01488 99.14798,114.30551 0 0 1 228.02115,239.28052 99.14798,114.30551 0 0 1 348.74136,320.64734" />
  <path
     style="fill:#ffffff;fill-opacity:1;stroke:none;stroke-width:32.9217;stroke-linecap:round;stroke-linejoin:round;stroke-dasharray:none;stroke-opacity:1;paint-order:stroke fill markers"
     id="path8"
     sodipodi:type="arc"
     sodipodi:cx="505.13129"
     sodipodi:cy="346.52347"
     sodipodi:rx="101.26276"
     sodipodi:ry="117.73308"
     sodipodi:start="6.0457271"
     sodipodi:end="6.0241321"
     sodipodi:open="true"
     sodipodi:arc-type="arc"
     d="M 603.55251,318.82877 A 101.26276,117.73308 0 0 1 529.48262,460.80166 101.26276,117.73308 0 0 1 406.97299,375.45208 101.26276,117.73308 0 0 1 479.72009,232.55763 101.26276,117.73308 0 0 1 603.0152,316.36432" />
  <path
     id="path1"
     style="fill:#000000;fill-opacity:1;stroke:#ffffff;stroke-width:81;stroke-dasharray:none;stroke-opacity:1;paint-order:stroke fill markers"
     d="M 75.953613 71.255859 C 75.864213 71.210109 75.767655 71.235916 75.697266 71.358398 C 75.555422 71.647684 75.090431 73.932572 74.668945 76.505859 C 70.824113 100.55919 70.730678 119.17319 74.387695 137.74072 C 83.014977 181.44027 114.52307 211.77679 168.1626 228.1875 C 179.61613 231.70283 192.46704 234.63559 205.82813 236.93115 C 244.07391 258.74216 257.43436 267.18674 273.41895 279.40137 C 284.84891 288.04136 302.48797 305.68185 309.14795 315.13184 C 328.58791 342.49178 335.97023 365.53102 336.24023 399.73096 L 336.32959 412.4209 L 332.36865 417.55078 C 320.48867 433.03076 301.40902 445.62979 281.78906 451.02979 C 271.34908 453.90977 253.16816 454.90043 242.63818 453.19043 C 199.34828 446.26044 163.16957 409.72005 154.07959 363.64014 C 152.18959 354.19016 152.45848 327.10129 154.43848 316.84131 C 159.29846 292.90135 171.71927 266.98005 187.46924 248.08008 C 192.86923 241.51009 192.14904 241.50992 182.78906 247.8999 C 153.62912 267.60986 134.27904 296.76992 126.53906 332.58984 C 124.01907 344.64981 124.20024 372.19168 126.99023 384.70166 C 133.02022 411.52161 144.08934 431.58982 163.5293 451.02979 C 179.72926 467.13975 194.39887 476.23132 215.54883 483.34131 C 229.4988 487.93129 239.66986 489.55078 256.31982 489.55078 C 278.72978 489.64078 296.54898 485.50041 316.16895 475.69043 C 323.36893 472.09043 325.61918 471.28002 326.15918 472.27002 C 326.60918 472.90002 338.57885 498.28155 352.79883 528.52148 C 352.87364 528.68105 352.86331 528.65226 352.93799 528.81152 C 358.94333 539.48844 382.84457 575.84613 406.36377 526.05762 C 407.08649 524.52767 407.8678 523.15192 408.68408 521.87109 C 420.65853 496.41076 431.86121 472.81567 432.17871 472.18066 C 432.71871 471.28066 435.05896 472.18043 442.16895 475.69043 C 461.78891 485.50041 479.60958 489.64078 502.01953 489.55078 C 518.7595 489.55078 528.83926 488.02048 542.96924 483.25049 C 563.93919 476.2305 578.61009 467.13975 594.81006 451.02979 C 614.16002 431.67982 625.31914 411.43161 631.34912 384.70166 C 633.14912 376.60168 633.41895 372.91099 633.41895 357.79102 C 633.41895 338.26106 632.42864 331.87105 627.11865 315.85107 C 617.84867 288.04113 599.93831 264.3707 575.81836 247.99072 C 565.46838 241.06073 564.83895 240.97184 570.41895 247.63184 C 585.89891 265.8118 598.31826 291.19089 603.44824 314.86084 C 605.06824 322.33083 605.42871 327.10045 605.42871 340.69043 C 605.51871 363.91039 602.72846 376.42064 593.18848 394.87061 C 577.07851 426.28055 548.27818 447.97043 515.69824 453.19043 C 505.07826 454.90043 486.98945 453.91042 476.45947 450.94043 C 456.92951 445.63043 437.58004 432.85093 426.06006 417.73096 C 423.09006 413.86096 422.54977 412.24083 422.00977 407.11084 C 421.28977 399.19086 422.90919 378.4907 425.15918 367.24072 C 431.90917 334.21079 452.87902 303.79038 487.16895 277.69043 C 502.10729 266.27687 517.43632 256.83874 553.03564 236.7041 C 571.58736 233.50135 585.14729 230.0389 599.52979 224.90479 C 623.67716 216.27751 641.542 205.4938 655.9834 190.91162 C 663.95433 182.8469 669.48786 175.01666 674.78613 164.18555 C 678.77176 156.12083 680.97455 149.83824 682.94385 141.21094 C 685.66378 129.30141 685.99219 125.69082 685.99219 109.32715 C 685.99219 94.18239 685.66234 89.775263 683.4126 76.271484 C 682.56788 71.160716 682.7096 71.20886 679.70947 75.757324 C 664.28344 99.248085 637.1336 116.68867 594.1377 130.80176 C 577.58622 136.24084 555.03429 142.19639 526.38574 148.71387 C 492.34544 156.49699 477.71565 160.05963 464.49316 163.76367 C 414.51096 177.9238 389.61436 194.38267 381.17432 218.81104 C 380.32961 221.24944 379.62744 223.73431 379.62744 224.29688 C 379.62744 224.90788 379.43035 225.375 379.15723 225.375 C 378.93197 225.375 378.68848 225.00047 378.68848 224.57813 C 378.68848 222.93659 376.20189 215.66983 374.46826 212.24707 C 364.10595 191.75728 340.0053 177.08103 295.64941 164.23389 C 282.66147 160.48282 265.40613 156.26183 223.01953 146.55615 C 197.98156 140.78876 174.21056 134.22504 159.01904 128.92676 C 118.83628 114.8604 94.03243 98.543044 79.168945 76.365234 C 77.620307 74.115501 76.307984 71.959032 76.16748 71.583984 C 76.125241 71.419266 76.043011 71.301614 75.953613 71.255859 z " />
  <path
     d="m 979.82951,457.4382 c 0.18,0.18 5.22,3.6 11.16,7.56 5.94,3.96 14.12999,9.99 18.26999,13.32 14.04,11.25 31.14,29.52 39.24,41.94 1.53,2.34 2.97,4.23 3.24,4.23 0.27,0 2.79,-3.33 5.58,-7.38 13.86,-19.71 36,-40.14 59.58,-55.08 7.02,-4.5 7.11,-4.5 4.05,-4.77 -1.62,-0.18 -12.15,0.36 -23.31,1.26 -25.2,1.89 -56.25,1.89 -82.8,0 -18.98999,-1.35 -35.90999,-1.89 -35.00999,-1.08 z"
     id="path2"
     style="fill:#000000;stroke:#ffffff;stroke-width:27;stroke-dasharray:none;stroke-opacity:1;paint-order:stroke fill markers" />
  <path
     d="m 233.66035,287.9987 c -11.205,4.995 -22.4775,16.335 -28.215,28.4175 -6.9525,14.715 -7.2225,33.4125 -0.675,48.1275 10.3275,23.355 34.8975,37.665 59.7375,34.83 13.5675,-1.5525 25.11,-7.02 34.8975,-16.47 l 5.805,-5.67 -0.4725,-3.915 c -0.7425,-6.48 -2.43,-14.3775 -4.2525,-19.845 -1.755,-5.13 -6.6825,-15.4575 -8.5725,-17.8875 -1.0125,-1.2825 -1.0125,-1.2825 -1.08,0.7425 -0.0675,7.02 -6.6825,15.4575 -13.8375,17.55 -13.1625,3.78 -25.5825,-5.4 -25.65,-18.9675 0,-7.8975 3.915,-14.1075 11.34,-18.0225 2.2275,-1.215 3.9825,-1.485 8.1675,-1.5525 h 5.265 l -4.2525,-3.915 c -8.1,-7.425 -32.535,-24.84 -34.6275,-24.705 -0.405,0 -2.025,0.6075 -3.5775,1.2825 z"
     id="path3"
     style="fill:#000000;stroke:#ffffff;stroke-width:33.75;stroke-dasharray:none;stroke-opacity:1;paint-order:stroke markers fill" />
  <path
     style="fill:#000000;fill-opacity:1;stroke:none;stroke-width:20.25;stroke-linecap:round;stroke-linejoin:round;stroke-dasharray:none;stroke-opacity:1;paint-order:stroke fill markers"
     d="m 276.10267,315.32483 7.06876,8.21035 4.66491,5.95497 3.83675,5.80357 0.33849,22.31838 -21.2762,11.66096 -32.52962,-19.0817 1.59711,-30.10205 18.69603,-11.43628 z"
     id="path9" />
  <path
     style="fill:#ffffff;fill-opacity:1;stroke:none;stroke-width:76.4411;stroke-linecap:round;stroke-linejoin:round;paint-order:stroke fill markers"
     id="path5"
     sodipodi:type="arc"
     sodipodi:cx="816.16895"
     sodipodi:cy="366.09784"
     sodipodi:rx="21.702791"
     sodipodi:ry="21.702791"
     sodipodi:start="6.0457271"
     sodipodi:end="6.0241321"
     sodipodi:open="true"
     sodipodi:arc-type="arc"
     d="m 837.26274,360.99263 a 21.702791,21.702791 0 0 1 -15.87478,26.17113 21.702791,21.702791 0 0 1 -26.25645,-15.73325 21.702791,21.702791 0 0 1 15.59127,-26.34101 21.702791,21.702791 0 0 1 26.4248,15.44883" />
  <path
     d="m 513.05523,291.46924 c -9.18,6.0075 -20.925,14.7825 -26.595,19.98 l -4.2525,3.915 h 5.265 c 4.185,0.0675 5.94,0.3375 8.1675,1.5525 7.425,3.915 11.34,10.125 11.34,18.0225 -0.0675,13.5675 -12.4875,22.7475 -25.65,18.9675 -7.155,-2.0925 -13.77,-10.53 -13.8375,-17.55 -0.0675,-2.025 -0.0675,-2.025 -1.08,-0.7425 -2.025,2.565 -6.885,12.825 -8.64,18.225 -1.9575,6.1425 -3.4425,12.8925 -4.1175,19.035 l -0.4725,4.185 3.5775,3.8475 c 22.815,24.165 60.075,25.1775 83.6325,2.295 12.0825,-11.745 17.82,-25.515 17.7525,-42.525 -0.0675,-17.01 -6.075,-30.51 -18.9675,-42.5925 -5.0625,-4.7925 -13.4325,-10.1925 -17.01,-11.07 -1.35,-0.3375 -3.24,0.6075 -9.1125,4.455 z"
     id="path4"
     style="fill:#000000;stroke:#ffffff;stroke-width:33.75;stroke-dasharray:none;stroke-opacity:1;paint-order:stroke markers fill" />
  <path
     style="fill:#000000;fill-opacity:1;stroke:none;stroke-width:20.25;stroke-linecap:round;stroke-linejoin:round;stroke-dasharray:none;stroke-opacity:1;paint-order:stroke fill markers"
     d="m 482.2286,315.33774 -4.04255,4.72133 -4.41877,5.15459 -4.01962,5.28426 -3.73046,5.60722 c 0,0 1.11744,28.00472 0.94018,28.28849 -0.17726,0.28376 42.1888,0.39844 42.1888,0.39844 l 14.00879,-32.2011 -18.76781,-23.23979 z"
     id="path10" />
  <path
     style="fill:#ffffff;fill-opacity:1;stroke:none;stroke-width:76.4411;stroke-linecap:round;stroke-linejoin:round;paint-order:stroke fill markers"
     id="path5-0"
     sodipodi:type="arc"
     sodipodi:cx="838.06958"
     sodipodi:cy="279.15518"
     sodipodi:rx="21.702791"
     sodipodi:ry="21.702791"
     sodipodi:start="6.0457271"
     sodipodi:end="6.0241321"
     sodipodi:open="true"
     sodipodi:arc-type="arc"
     d="m 859.16337,274.04997 a 21.702791,21.702791 0 0 1 -15.87477,26.17113 21.702791,21.702791 0 0 1 -26.25646,-15.73325 21.702791,21.702791 0 0 1 15.59127,-26.34101 21.702791,21.702791 0 0 1 26.4248,15.44884" />
  <path
     style="fill:#fefefe;fill-opacity:1;stroke:none;stroke-width:37.5;stroke-linecap:round;stroke-linejoin:round;stroke-dasharray:none;stroke-opacity:1;paint-order:stroke markers fill"
     d="m 908.79327,581.51152 c 0,0 12.40178,25.70627 24.79908,0.22391 12.3973,-25.48236 17.58945,24.49884 17.58945,24.49884 l -38.84132,10.45376 -18.74447,-30.9072 z"
     id="path6" />
</svg>
