<?xml version="1.0" encoding="UTF-8" standalone="no"?>
<svg
   version="1.0"
   width="34"
   height="34"
   viewBox="0 0 25.5 25.499999"
   preserveAspectRatio="xMidYMid"
   id="svg4"
   sodipodi:docname="new-owl.svg"
   inkscape:version="1.3.2 (091e20ef0f, 2023-11-25)"
   xmlns:inkscape="http://www.inkscape.org/namespaces/inkscape"
   xmlns:sodipodi="http://sodipodi.sourceforge.net/DTD/sodipodi-0.dtd"
   xmlns="http://www.w3.org/2000/svg"
   xmlns:svg="http://www.w3.org/2000/svg">
  <defs
     id="defs4" />
  <sodipodi:namedview
     id="namedview4"
     pagecolor="#ffffff"
     bordercolor="#000000"
     borderopacity="0.25"
     inkscape:showpageshadow="2"
     inkscape:pageopacity="0.0"
     inkscape:pagecheckerboard="0"
     inkscape:deskcolor="#d1d1d1"
     inkscape:document-units="pt"
     inkscape:zoom="16"
     inkscape:cx="22.90625"
     inkscape:cy="11.75"
     inkscape:window-width="3840"
     inkscape:window-height="2091"
     inkscape:window-x="2560"
     inkscape:window-y="0"
     inkscape:window-maximized="1"
     inkscape:current-layer="svg4" />
  <path
     style="fill:#000000;fill-opacity:1;stroke:#ffffff;stroke-width:2.18561;stroke-linecap:round;stroke-linejoin:round;stroke-dasharray:none;stroke-opacity:1;paint-order:stroke fill markers"
     id="path6-5"
     sodipodi:type="arc"
     sodipodi:cx="8.5929947"
     sodipodi:cy="13.379419"
     sodipodi:rx="2.8059461"
     sodipodi:ry="2.8059461"
     sodipodi:start="6.0457271"
     sodipodi:end="6.0241321"
     sodipodi:open="true"
     sodipodi:arc-type="arc"
     d="m 11.320203,12.719368 a 2.8059461,2.8059461 0 0 1 -2.0524436,3.383657 2.8059461,2.8059461 0 0 1 -3.3946875,-2.034147 2.8059461,2.8059461 0 0 1 2.0157898,-3.40562 2.8059461,2.8059461 0 0 1 3.4164533,1.997375" />
  <path
     style="fill:#000000;fill-opacity:1;stroke:#ffffff;stroke-width:2.18561;stroke-linecap:round;stroke-linejoin:round;stroke-dasharray:none;stroke-opacity:1;paint-order:stroke fill markers"
     id="path6"
     sodipodi:type="arc"
     sodipodi:cx="16.924719"
     sodipodi:cy="13.373129"
     sodipodi:rx="2.8059461"
     sodipodi:ry="2.8059461"
     sodipodi:start="6.0457271"
     sodipodi:end="6.0241321"
     sodipodi:open="true"
     sodipodi:arc-type="arc"
     d="m 19.651927,12.713078 a 2.8059461,2.8059461 0 0 1 -2.052443,3.383656 2.8059461,2.8059461 0 0 1 -3.394688,-2.034146 2.8059461,2.8059461 0 0 1 2.01579,-3.40562 2.8059461,2.8059461 0 0 1 3.416453,1.997374" />
  <path
     d="m 1.9825865,5.2165909 c -0.005,0.00999 -0.021648,0.091588 -0.036635,0.183175 -0.1365487,0.854262 -0.1398792,1.5153576 -0.00999,2.1747878 0.306402,1.5519925 1.4254352,2.6293953 3.330456,3.2122253 0.5045641,0.154866 1.0840634,0.279758 1.6818803,0.36635 0.3830024,0.05495 0.722709,0.113235 0.9658322,0.168188 1.7851245,0.394659 3.18225,1.237264 4.123104,2.48785 0.249784,0.331381 0.441286,0.644444 0.636117,1.044098 0.0433,0.08992 0.0816,0.163193 0.08659,0.161527 0.005,0 0.05995,-0.103244 0.121562,-0.229801 0.596151,-1.212286 1.568645,-2.178118 2.820896,-2.805909 0.754348,-0.376342 1.67855,-0.6561 2.619404,-0.792649 1.007463,-0.144875 1.606945,-0.281423 2.26471,-0.51622 0.857593,-0.306402 1.492045,-0.689405 2.004935,-1.207291 0.283088,-0.2864189 0.479585,-0.564512 0.667756,-0.9491797 0.141545,-0.2864192 0.21981,-0.5095597 0.28975,-0.8159617 0.09658,-0.4229679 0.10824,-0.5511905 0.10824,-1.132355 0,-0.5378687 -0.01166,-0.6944001 -0.09159,-1.1739858 -0.02997,-0.1815099 -0.02498,-0.1798446 -0.131553,-0.018318 -0.54786,0.8342792 -1.512027,1.4537441 -3.039041,1.9549777 -0.587825,0.1931664 -1.3888,0.4046504 -2.406255,0.6361171 -1.208955,0.2764278 -1.728507,0.4029852 -2.198101,0.5345382 -1.775133,0.5028988 -2.659369,1.0873942 -2.95911,1.9549772 -0.02997,0.08659 -0.05495,0.174849 -0.05495,0.194832 0,0.02165 -0.0067,0.0383 -0.01665,0.0383 -0.0083,0 -0.01665,-0.01332 -0.01665,-0.02831 0,-0.05828 -0.08826,-0.316393 -0.149871,-0.437955 C 12.225404,9.492896 11.369477,8.97168 9.7941711,8.5154076 9.3329029,8.3821893 8.720099,8.2323188 7.2147329,7.8876166 6.3255011,7.6827936 5.4812305,7.4496616 4.9416967,7.2614909 3.5145963,6.7619225 2.6336907,6.1824231 2.1058134,5.3947703 2.0508609,5.3148393 2.0042345,5.2382388 1.9992388,5.224917 1.9959088,5.21326 1.9875818,5.208265 1.9825868,5.216587 Z"
     id="path1"
     style="fill:#000000;stroke:#ffffff;stroke-width:2.18561;stroke-dasharray:none;stroke-opacity:1;paint-order:stroke fill markers" />
  <path
     d="m 12.12216,16.38361 c -0.601148,0.527877 -0.627791,0.552856 -0.606143,0.587825 0.01332,0.01832 0.06494,0.106575 0.114901,0.193167 0.09325,0.161527 0.58949,1.005798 0.854262,1.457074 0.0816,0.136549 0.174848,0.296411 0.206488,0.353029 0.0333,0.05828 0.06328,0.104909 0.06827,0.104909 0.005,-0.0017 0.176514,-0.28975 0.383003,-0.644443 0.359689,-0.616135 0.559516,-0.955841 0.76767,-1.310535 0.05495,-0.08992 0.09825,-0.173183 0.09825,-0.18484 0,-0.01166 -0.0433,-0.05662 -0.09492,-0.101579 -0.05329,-0.04496 -0.168188,-0.144875 -0.25478,-0.22314 -0.08826,-0.07827 -0.264771,-0.233132 -0.392994,-0.343037 -0.126557,-0.111571 -0.291414,-0.256446 -0.364684,-0.321389 -0.07327,-0.06494 -0.136549,-0.118232 -0.141545,-0.118232 -0.005,0 -0.291415,0.248119 -0.637782,0.551191 z"
     id="path4"
     style="fill:#000000;stroke:#ffffff;stroke-width:2.18561;stroke-dasharray:none;stroke-opacity:1;paint-order:stroke fill markers" />
  <path
     style="fill:#000000;fill-opacity:1;stroke:none;stroke-width:1.01662;stroke-linecap:round;stroke-linejoin:round;stroke-dasharray:none;stroke-opacity:1;paint-order:stroke fill markers"
     d="m 6.4347799,11.585819 0.7477033,0.115307 0.54267,0.09841 0.3132611,0.0736 0.3414655,0.09101 0.3586276,0.114027 0.399879,0.152286 0.3349542,0.150168 0.2658093,0.135118 0.2867021,0.160214 0.212168,0.135954 0.272165,0.191546 0.291836,0.228799 0.254435,0.2335 0.2333,0.237688 0.07847,0.08845 -0.03021,0.170201 -0.04992,0.19579 -0.02364,0.07916 -3.2779582,0.583563 -1.9149419,-1.827911 -0.039953,-0.756186 0.068192,-0.145289 0.062582,-0.113364 0.088752,-0.141977 0.079422,-0.115508 z"
     id="path10" />
  <path
     style="fill:#000000;fill-opacity:1;stroke:none;stroke-width:1.01662;stroke-linecap:round;stroke-linejoin:round;stroke-dasharray:none;stroke-opacity:1;paint-order:stroke fill markers"
     d="m 14.976166,15.39197 -0.215876,-0.230881 -0.180925,-0.246994 -0.151067,-0.252369 -0.09411,-0.210538 -0.07551,-0.197897 -0.04588,-0.15649 -0.04004,-0.172433 -0.02205,-0.131211 0.116359,-0.128752 0.140321,-0.143753 0.127556,-0.122757 0.159478,-0.142796 0.166486,-0.138894 0.180254,-0.137762 0.170786,-0.123161 0.215714,-0.140956 0.268448,-0.157554 0.238658,-0.127058 0.271642,-0.12604 0.256695,-0.10752 0.309311,-0.11502 0.403933,-0.128079 0.349644,-0.09431 0.300915,-0.06787 0.357111,-0.06935 0.345021,-0.05157 0.363418,-0.05754 0.189245,-0.03115 0.07355,0.09086 0.105775,0.145316 0.101955,0.164995 0.09008,0.17007 0.08094,0.187164 0.05572,0.154814 0.06315,0.217403 0.04504,0.216696 0.02567,0.219753 z"
     id="path11" />
  <path
     style="fill:#000000;fill-opacity:1;stroke:none;stroke-width:2.18561;stroke-linecap:round;stroke-linejoin:round;stroke-dasharray:none;stroke-opacity:1;paint-order:stroke fill markers"
     d="m 11.264442,14.236648 -0.02609,0.09902 -0.0323,0.08414 -0.03208,0.06051 -0.12771,0.04775 -0.189735,-0.182275 0.04995,-0.25784 0.2522,0.0059 0.101396,0.09159 z"
     id="path12" />
  <path
     style="fill:#000000;fill-opacity:1;stroke:none;stroke-width:1.01163;stroke-linecap:round;stroke-linejoin:round;stroke-dasharray:none;stroke-opacity:1;paint-order:stroke fill markers"
     d="m 12.388447,14.334066 0.132893,0.22714 0.116037,0.22059 0.122463,0.237991 0.09128,-0.171091 0.120807,-0.23456 0.13341,-0.245475 0.133603,-0.212543 -0.627159,-0.333587 z"
     id="path13" />
</svg>
